<?xml version="1.0" encoding="utf-8"?>
<svg version="1.1" id="Layer_1" xmlns="http://www.w3.org/2000/svg" xmlns:xlink="http://www.w3.org/1999/xlink" x="0px" y="0px"
	 width="128px" height="128px" viewBox="0 0 128 128" style="enable-background:new 0 0 128 128;" xml:space="preserve">
<style type="text/css">
	.st0{fill:#FFFFFF;}
</style>
<g>
	<path class="st0" d="M37.2,70.3c-0.3-0.3-0.5-0.6-0.8-1c-0.2-0.3-0.4-0.7-0.6-1.1c-0.5-1.3-0.7-2.6-0.5-3.9
		c0.2-1.3,0.8-2.5,1.7-3.5l0.3-0.3c2.3-2.2,5.8-2.6,8.5-1c0.4,0.2,0.8,0.5,1.1,0.8l0,0c1.9,1.9,5.2,4.9,7.3,6.8l1.8,1.7l22.5-23.6
		c0.3-0.3,0.7-0.6,1-0.9c0.4-0.3,0.8-0.5,1.2-0.7c0.4-0.2,0.9-0.3,1.3-0.4c0.4-0.1,0.9-0.2,1.4-0.2h0c0.5,0,0.9,0,1.3,0.1
		c0.4,0.1,0.9,0.2,1.3,0.4c0.4,0.2,0.8,0.4,1.2,0.6c0.4,0.2,0.7,0.5,1.1,0.8l0.2,0.1c0.3,0.3,0.6,0.7,0.8,1c0.3,0.4,0.5,0.8,0.7,1.2
		c0.2,0.4,0.3,0.9,0.4,1.3c0.1,0.4,0.2,0.9,0.2,1.4v0.2c0,0.4,0,0.8-0.1,1.2c-0.1,0.4-0.2,0.9-0.4,1.3c-0.2,0.4-0.4,0.8-0.6,1.2
		c-0.2,0.4-0.5,0.7-0.8,1.1L61.8,83.4c-0.3,0.3-0.7,0.6-1,0.9c-0.4,0.3-0.8,0.5-1.2,0.7c-0.4,0.2-0.9,0.3-1.3,0.4
		c-0.4,0.1-0.9,0.2-1.3,0.2l-0.1,0c-0.4,0-0.8,0-1.2-0.1l-0.1,0c-0.4-0.1-0.8-0.2-1.2-0.3c-0.4-0.2-0.8-0.3-1.2-0.6l-0.1,0
		c-0.4-0.2-0.7-0.5-1-0.8l-0.1-0.1c-1.6-1.5-3.3-3-5-4.5C43.9,76.7,39.7,73,37.2,70.3L37.2,70.3L37.2,70.3z M64.2,2.3
		c17,0,32.3,6.9,43.5,18c11.1,11.1,18,26.5,18,43.5c0,17-6.9,32.3-18,43.5c-11.1,11.1-26.5,18-43.5,18c-17,0-32.3-6.9-43.5-18
		c-11.1-11.1-18-26.5-18-43.5c0-17,6.9-32.3,18-43.5C31.9,9.2,47.3,2.3,64.2,2.3L64.2,2.3z M99.7,28.3c-9.1-9.1-21.6-14.7-35.5-14.7
		c-13.9,0-26.4,5.6-35.5,14.7c-9.1,9.1-14.7,21.6-14.7,35.5c0,13.9,5.6,26.4,14.7,35.5s21.6,14.7,35.5,14.7
		c13.8,0,26.4-5.6,35.5-14.7s14.7-21.6,14.7-35.5C114.4,49.9,108.8,37.4,99.7,28.3L99.7,28.3z"/>
</g>
</svg>
