<?xml version="1.0" encoding="utf-8"?>
<svg version="1.1" id="Layer_1" xmlns="http://www.w3.org/2000/svg" xmlns:xlink="http://www.w3.org/1999/xlink" x="0px" y="0px"
	 width="218.3px" height="190.8px" viewBox="0 0 218.3 190.8" style="enable-background:new 0 0 218.3 190.8;" xml:space="preserve"
	>
<style type="text/css">
	.st0{fill:#5B7A9A;}
	.st1{fill:#FFFFFF;}
</style>
<path class="st0" d="M204.5,119.2c-0.3,13.1-11.5,22.4-25.8,22.4c-22.8,0.1-45.6,0-68.4,0c-9.2,0.1-18.4,0.1-28,0.1
	c0-21.8-0.4-42.9,0.2-64.1C82.9,65,93,55.2,105.6,55.1c32.6-0.4,65.3-0.2,97.9-0.2c0.3,0,0.6,0.2,1.1,0.5
	C204.6,76.6,205,97.9,204.5,119.2z"/>
<path class="st0" d="M53.2,80c-5.3,0-10.7,0.3-15.9-0.2c-1.7-0.2-3.1-2.4-4.7-3.7c1.6-1,3.2-2.9,4.8-3C47.9,72.8,58.3,73,68.8,73
	c2.5,0,5.3,0.4,4.7,3.4c-0.3,1.4-3.1,3.2-4.8,3.4C63.5,80.2,58.3,80,53.2,80z"/>
<path class="st0" d="M34.1,101.6c-5.2,0-10.3,0.2-15.5-0.2c-1.4-0.1-2.7-2.1-4.1-3.2c1.3-1.1,2.6-3.2,4-3.3
	c10.2-0.3,20.3-0.3,30.5,0c1.5,0,3,2.2,4.4,3.4c-1.5,1.1-2.8,2.9-4.4,3C44.1,101.9,39.1,101.6,34.1,101.6z"/>
<path class="st0" d="M48.7,123.5c-3.5,0-7,0.3-10.5-0.1c-1.4-0.2-2.5-1.9-3.8-2.9c1.2-1.3,2.4-3.6,3.7-3.6c7.3-0.3,14.6-0.3,21.9,0
	c1.2,0.1,2.4,2.1,3.6,3.3c-1.3,1.1-2.6,3.1-4,3.3C56.1,123.9,52.4,123.5,48.7,123.5z"/>
<path class="st1" d="M125.1,102c-5.5,5.9-10.5,11.6-15.9,17c-1.2,1.2-3.6,1.3-5.4,1.8c0.5-1.8,0.5-4.1,1.7-5.4
	c5.1-5.7,10.5-11.2,16-17c-6-5.6-12.5-11.4-18.7-17.6c-1.1-1.1-1.1-3.3-1.6-5c1.9,0.3,4.3-0.1,5.5,1c8.8,7.6,17.4,15.5,26.1,23.2
	c7.7,6.9,13.7,7,21.6,0.2c8.7-7.6,17-15.4,25.7-22.9c1.4-1.2,3.9-1.1,5.9-1.5c-0.7,1.9-0.8,4.5-2.1,5.7
	c-6.1,5.9-12.5,11.4-18.9,17.1c5.4,5.5,10.9,11,16.2,16.7c1.2,1.3,1.3,3.5,1.9,5.3c-1.8-0.5-4.2-0.5-5.4-1.7
	c-5.4-5.4-10.5-11.2-15.9-17c-6,5-10.6,9.9-18.1,9.8C136.4,111.7,131.3,107.7,125.1,102z"/>
</svg>
