<?xml version="1.0" encoding="utf-8"?>
<!DOCTYPE svg PUBLIC "-//W3C//DTD SVG 1.1//EN" "http://www.w3.org/Graphics/SVG/1.1/DTD/svg11.dtd">
<svg version="1.1" id="Layer_1" xmlns="http://www.w3.org/2000/svg" xmlns:xlink="http://www.w3.org/1999/xlink" x="0px" y="0px"
	 width="40px" height="40px" viewBox="0 0 40 40" enable-background="new 0 0 40 40" xml:space="preserve">
<g>
	<path fill="none" stroke="#26699c" stroke-width="1.5" stroke-miterlimit="10" d="M31.3,17.7h-1.8c-0.2-1-0.6-2-1.2-2.9l1.3-1.3
		c0.101-0.1,0.101-0.4,0-0.5L26.9,10.3c-0.101-0.1-0.4-0.1-0.5,0L25.1,11.6C24.2,11,23.2,10.6,22.2,10.4V8.7c0-0.2-0.2-0.4-0.4-0.4
		H18c-0.2,0-0.4,0.2-0.4,0.4v1.8c-1,0.2-2,0.6-2.9,1.2l-1.3-1.3c-0.1-0.1-0.4-0.1-0.5,0l-2.7,2.7c-0.1,0.1-0.1,0.4,0,0.5l1.3,1.3
		c-0.6,0.9-1,1.9-1.2,2.9H8.7c-0.2,0-0.4,0.2-0.4,0.4V22c0,0.2,0.2,0.4,0.4,0.4h1.8c0.2,1,0.6,2,1.2,2.899l-1.3,1.3
		c-0.1,0.101-0.1,0.4,0,0.5l2.7,2.7c0.1,0.101,0.4,0.101,0.5,0l1.3-1.3c0.9,0.6,1.9,1,2.9,1.2v1.8c0,0.2,0.2,0.4,0.4,0.4H22
		c0.2,0,0.4-0.2,0.4-0.4v-1.8c1-0.2,2-0.601,2.899-1.2l1.3,1.3c0.101,0.101,0.4,0.101,0.5,0l2.7-2.7c0.101-0.1,0.101-0.399,0-0.5
		l-1.3-1.3c0.6-0.899,1-1.899,1.2-2.899h1.8c0.2,0,0.4-0.2,0.4-0.4v-3.8C31.7,17.9,31.5,17.7,31.3,17.7L31.3,17.7z"/>
	<path fill="none" stroke="#26699c" stroke-width="1.5" stroke-miterlimit="10" d="M20,23.4c-1.9,0-3.4-1.5-3.4-3.4
		c0-1.9,1.5-3.4,3.4-3.4c1.9,0,3.4,1.5,3.4,3.4C23.4,21.9,21.9,23.4,20,23.4L20,23.4z"/>
	<path fill="none" stroke="#ea468f" stroke-width="1.5" stroke-miterlimit="10" d="M3.1,20c0-9.3,7.6-16.9,16.9-16.9"/>
	<path fill="none" stroke="#ea468f" stroke-width="1.5" stroke-miterlimit="10" d="M36.9,20c0,9.3-7.601,16.9-16.9,16.9l0,0"/>
	<polyline fill="none" stroke="#ea468f" stroke-width="1.5" stroke-miterlimit="10" points="17.8,0.6 20.3,3.1 17.8,5.6 	"/>
	<polyline fill="none" stroke="#ea468f" stroke-width="1.5" stroke-miterlimit="10" points="22.2,34.4 19.7,36.9 22.2,39.4 	"/>
</g>
</svg>
