<?xml version="1.0" encoding="utf-8"?>
<!DOCTYPE svg PUBLIC "-//W3C//DTD SVG 1.1//EN" "http://www.w3.org/Graphics/SVG/1.1/DTD/svg11.dtd">
<svg version="1.1" id="Layer_1" xmlns="http://www.w3.org/2000/svg" xmlns:xlink="http://www.w3.org/1999/xlink" x="0px" y="0px"
	 width="40px" height="40px" viewBox="0 0 40 40" enable-background="new 0 0 40 40" xml:space="preserve">
<g>
	<path fill="none" stroke="#26699c" stroke-width="1.5" stroke-miterlimit="10" d="M26.5,3.6c-1.3,0.7-2.6,1.7-3.9,2.9
		c-2.8,2.7-5.5,5.7-5.5,5.7"/>
	<path fill="none" stroke="#26699c" stroke-width="1.5" stroke-miterlimit="10" d="M37.5,8.4c0-3.5,0-6,0-6s-2.5,0-6,0
		c-1.9,0-3.5,0.4-5,1.2"/>
	<path fill="none" stroke="#26699c" stroke-width="1.5" stroke-miterlimit="10" d="M27.8,23.1c0,0,3-3,5.601-5.8
		c2.6-2.8,4.1-5.4,4.1-8.9"/>
	<polyline fill="none" stroke="#26699c" stroke-width="1.5" stroke-miterlimit="10" points="15,14.3 8.6,20.7 19.9,31.1 25.8,25.1 	
		"/>
	<polyline fill="none" stroke="#26699c" stroke-width="1.5" stroke-miterlimit="10" points="18.6,10.6 10,10.6 3.5,17.3 12,17.3 	
		"/>
	<polyline fill="none" stroke="#26699c" stroke-width="1.5" stroke-miterlimit="10" points="30,20.9 30,28.7 23.1,36.2 23.1,27.8 	
		"/>
	<line fill="none" stroke="#26699c" stroke-width="1.5" stroke-miterlimit="10" x1="25.4" y1="14.7" x2="14.5" y2="26.1"/>
	<polyline fill="none" stroke="#26699c" stroke-width="1.5" stroke-miterlimit="10" points="10.1,22.1 6.8,25.9 14.5,33.1 
		18.1,29.4 	"/>
	<line fill="none" stroke="#ea468f" stroke-width="1.5" stroke-miterlimit="10" x1="6.8" y1="28.5" x2="2.5" y2="32.3"/>
	<line fill="none" stroke="#ea468f" stroke-width="1.5" stroke-miterlimit="10" x1="12.1" y1="33.8" x2="7.8" y2="37.6"/>
	<line fill="none" stroke="#ea468f" stroke-width="1.5" stroke-miterlimit="10" x1="9.6" y1="31.1" x2="3.5" y2="36.6"/>
	<circle fill="none" stroke="#26699c" stroke-width="1.5" stroke-miterlimit="10" cx="30.3" cy="9.4" r="3.3"/>
</g>
</svg>
