<?xml version="1.0" encoding="utf-8"?>
<svg version="1.1"
	 id="Layer_1" shape-rendering="geometricPrecision" image-rendering="optimizeQuality" text-rendering="geometricPrecision"
	 xmlns="http://www.w3.org/2000/svg" xmlns:xlink="http://www.w3.org/1999/xlink" x="0px" y="0px" width="502px" height="511.8px"
	 viewBox="0 0 502 511.8" style="enable-background:new 0 0 502 511.8;" xml:space="preserve">
<style type="text/css">
	.st0{display:none;fill:#FEFEFE;}
	.st1{fill:#020202;}
	.st2{fill:#010101;}
	.st3{display:none;fill:#F9F9F9;}
	.st4{fill:#565656;}
	.st5{display:none;fill:#FDFDFD;}
</style>
<g>
	<path class="st0" d="M492.4,124.9c0,109.4,0,218.7,0,328.1c-31.7,0-63.4,0-95.1,0c0.2-0.2,0.5-0.4,0.7-0.4
		c21.9-2.4,39.2-19.9,41.1-41.7c2.7-30.9-24.6-55.5-55.1-49.6c-21.4,4.1-36.8,22.8-37.3,44.9c-0.4,21.2,14.6,40.5,35.4,45.4
		c1.9,0.5,3.9,0.9,5.8,1.4c-60.1,0-120.2,0-180.3,0c0.2-0.2,0.5-0.4,0.7-0.4c22.1-2.4,39.4-20.2,41.1-42.2c2.3-30-23.8-54-53.5-49.4
		c-21.9,3.4-38.3,22.4-38.9,44.8c-0.6,21.9,15.1,41.6,36.7,46.2c1.4,0.3,2.7,0.7,4.1,1.1c-62.7,0-125.4,0-188.2,0
		c0-126.4,0-252.9,0-379.3c2.7,7.3,8.1,9.6,15.5,9.4C40.8,82.7,56.4,82.9,72,83c13.2,0,23.2,7.3,27.4,19.9
		c21.7,65.1,43.4,130.1,65.1,195.2c11,33,38.4,52.7,73.2,52.7c53.8,0,107.5,0,161.3,0c1.6,0,3.1-0.1,4.7-0.3
		c6.3-1.1,10.6-7.7,9.3-14c-1.3-6.1-6-9.6-12.7-9.6c-54.4,0-108.8,0-163.3,0c-9,0-17.5-1.9-25.5-6.3c-7.9-4.4-14.2-10.4-19.1-18.4
		c1.3,0,2.3,0,3.2,0c58.6,0,117.2,0,175.8,0c3.3,0,6.6-0.1,9.8-0.6c20-3.4,34.7-14.2,43.3-32.6C446.9,220.9,471.4,173.7,492.4,124.9
		z"/>
	<path class="st0" d="M76.6,58.9c138.6,0,277.2,0,415.8,0c0,19,0,38.1,0,57.1c-0.3-0.9-0.5-1.8-0.8-2.7c-3.5-15-16-24.8-31.8-24.8
		c-100.4,0-200.8,0-301.2,0c-0.7,0-1.3,0-2,0c-7.8,0.5-13,7.6-11,15c1.5,5.7,6.2,9,13.1,9c99.9,0,199.8,0,299.7,0
		c1.1,0,2.2-0.2,3.2,0.1c1.7,0.6,3.5,1.1,4.7,2.3c2.7,2.5,2.8,5.7,0.7,10c-21.2,44.2-42.4,88.4-63.5,132.6
		c-6.7,14.1-17.5,20.9-33.1,20.8c-61.5-0.1-123-0.1-184.5,0c-2.3,0-3.2-0.6-3.9-2.8c-20-60.2-40-120.4-60.1-180.5
		c-6-17.9-18.3-29.3-36.5-34.3C82.5,59.8,79.5,59.4,76.6,58.9z"/>
	<path class="st1" d="M76.6,58.9c2.9,0.6,5.9,1,8.7,1.8c18.2,5,30.5,16.5,36.5,34.3C142,155.1,162,215.3,182,275.5
		c0.7,2.2,1.6,2.8,3.9,2.8c61.5-0.1,123-0.1,184.5,0c15.6,0,26.4-6.7,33.1-20.8c21.1-44.3,42.3-88.4,63.5-132.6c2-4.3,2-7.5-0.7-10
		c-1.2-1.1-3.1-1.7-4.7-2.3c-1-0.3-2.1-0.1-3.2-0.1c-99.9,0-199.8,0-299.7,0c-6.8,0-11.6-3.3-13.1-9c-1.9-7.4,3.3-14.5,11-15
		c0.7,0,1.3,0,2,0c100.4,0,200.8,0,301.2,0c15.8,0,28.3,9.8,31.8,24.8c0.2,0.9,0.5,1.8,0.8,2.7c0,3,0,5.9,0,8.9
		c-20.9,48.9-45.5,96-68,144.1c-8.6,18.4-23.3,29.2-43.3,32.6c-3.2,0.5-6.5,0.6-9.8,0.6c-58.6,0-117.2,0-175.8,0c-0.9,0-1.9,0-3.2,0
		c4.9,8.1,11.1,14.1,19.1,18.4c7.9,4.4,16.4,6.3,25.5,6.3c54.4,0,108.8,0,163.3,0c6.7,0,11.4,3.6,12.7,9.6c1.4,6.3-2.9,12.9-9.3,14
		c-1.5,0.3-3.1,0.3-4.7,0.3c-53.8,0-107.5,0-161.3,0c-34.8,0-62.2-19.8-73.2-52.7C142.7,233,121,167.9,99.3,102.9
		C95.1,90.3,85.2,83,72,83c-15.6-0.1-31.2-0.2-46.8,0.1c-7.5,0.1-12.9-2.1-15.5-9.4c0-2,0-3.9,0-5.9c0.4-0.7,0.8-1.3,1.2-2
		c1.9-3.5,4.6-5.8,8.6-6.4c18.5,0,37,0,55.5,0c0.4,0,0.8-0.3,1.2-0.5C76.3,58.9,76.5,58.9,76.6,58.9z"/>
	<path class="st2" d="M197.8,452.9c-1.4-0.4-2.7-0.8-4.1-1.1c-21.5-4.5-37.2-24.3-36.7-46.2c0.6-22.4,17-41.4,38.9-44.8
		c29.7-4.6,55.8,19.4,53.5,49.4c-1.7,22-19,39.8-41.1,42.2c-0.3,0-0.5,0.3-0.7,0.4C204.4,452.9,201.1,452.9,197.8,452.9z
		 M203.3,384.2c-12.3,0-22.3,9.9-22.3,22.2c0,12.4,9.9,22.4,22.3,22.4c12.4,0,22.4-10.1,22.3-22.4
		C225.5,394.1,215.6,384.2,203.3,384.2z"/>
	<path class="st2" d="M387.9,452.9c-1.9-0.5-3.9-1-5.8-1.4c-20.8-4.9-35.8-24.2-35.4-45.4c0.4-22.1,15.9-40.7,37.3-44.9
		c30.5-5.9,57.8,18.7,55.1,49.6c-1.9,21.7-19.2,39.3-41.1,41.7c-0.3,0-0.5,0.3-0.7,0.4C394.2,452.9,391.1,452.9,387.9,452.9z
		 M393.1,384.2c-12.3,0-22.3,9.9-22.4,22.1c-0.1,12.4,9.9,22.4,22.3,22.4c12.3,0,22.2-9.8,22.4-22.1
		C415.5,394.4,405.4,384.2,393.1,384.2z"/>
	<path class="st3" d="M19.4,59.3c-4,0.6-6.7,3-8.6,6.4c-0.4,0.7-0.8,1.3-1.2,2c0-3,0-5.9,0-8.9c3.3,0,6.6,0,9.9,0
		C19.5,59,19.5,59.2,19.4,59.3z"/>
	<path class="st4" d="M19.4,59.3c0.1-0.1,0.1-0.3,0-0.5c18.9,0,37.8,0,56.6,0c-0.4,0.2-0.8,0.5-1.2,0.5
		C56.4,59.4,37.9,59.3,19.4,59.3z"/>
	<path class="st5" d="M203.3,384.2c12.3,0,22.2,9.8,22.3,22.2c0.1,12.3-9.9,22.4-22.3,22.4c-12.4,0-22.3-10-22.3-22.4
		C181.1,394.2,191,384.2,203.3,384.2z"/>
	<path class="st5" d="M393.1,384.2c12.4,0,22.4,10.2,22.3,22.5s-10.1,22.1-22.4,22.1s-22.3-10.1-22.3-22.4
		C370.8,394.2,380.8,384.2,393.1,384.2z"/>
</g>
</svg>
