<?xml version="1.0" encoding="utf-8"?>
<svg version="1.1" id="Layer_1" xmlns="http://www.w3.org/2000/svg" xmlns:xlink="http://www.w3.org/1999/xlink" x="0px" y="0px"
	 viewBox="0 0 128 128" style="enable-background:new 0 0 128 128;" xml:space="preserve">
<style type="text/css">
	.st0{fill:#242B3B;}
</style>
<path class="st0" d="M113.6,58.5c-0.7,1.9-2.4,3.1-4.4,3.1h-47c-2.6,0-4.7-2.1-4.7-4.7v-3H30.4v50.9c4.1,1.8,6.9,5.9,6.9,10.6
	c0,6.4-5.2,11.6-11.6,11.6s-11.6-5.2-11.6-11.6c0-4.7,2.8-8.8,6.9-10.6V49.2V14.1V5.7C21,3.1,23.1,1,25.7,1s4.7,2.1,4.7,4.7v3.7
	h42.3c2.6,0,4.7,2.1,4.7,4.7v3h31.8c2,0,3.7,1.2,4.4,3.1c0.7,1.9,0.1,3.9-1.4,5.2l-17,13.9l17,13.9
	C113.7,54.5,114.2,56.6,113.6,58.5z"/>
</svg>
