<?xml version="1.0" encoding="utf-8"?>
<svg version="1.1"
	 id="Layer_1" shape-rendering="geometricPrecision" image-rendering="optimizeQuality" text-rendering="geometricPrecision"
	 xmlns="http://www.w3.org/2000/svg" xmlns:xlink="http://www.w3.org/1999/xlink" x="0px" y="0px" width="502px" height="511.8px"
	 viewBox="0 0 502 511.8" style="enable-background:new 0 0 502 511.8;" xml:space="preserve">
<g>
	<path d="M131.4,257.2c2.7,6.8,5.2,13.2,7.9,20.2C77.5,305.1,44.8,354,35,420.3c110.4,23.2,220.6,22.8,331.4,0.2
		c-9.8-65.8-41.9-115-104.3-142.7c2.6-7,5.2-13.7,7.9-20.9c1.9,0.8,3.6,1.4,5.2,2.1c53.3,24.2,87.4,65.3,105,120.5
		c4.1,12.9,6.5,26.4,8.9,39.8c2.2,12-3.4,20.4-15.5,22.6c-30.7,5.4-61.4,11.2-92.4,14.8c-24.5,2.9-49.4,3.4-74.1,3.7
		c-42.3,0.5-84.2-4.4-126-10.7c-17.2-2.6-34.5-5.1-51.8-7.5c-12.3-1.8-18.7-9.1-17-21.2c5.4-40,18.3-77.1,44.2-108.9
		c18-22.2,40.4-38.8,65.9-51.4C125.1,259.3,128.1,258.4,131.4,257.2z"/>
	<path d="M101.4,176.3c0-55.1,44.7-99.6,100.1-99.5c53.6,0,98.5,45.2,98.5,99c0,55.7-47.4,100.7-100.5,99.8
		C146.4,274.8,101.4,229.9,101.4,176.3z M200.7,253c43.7,0,77-33,77-76.3c0-44.3-33.2-77.9-77.2-78c-42.8-0.1-76.7,33.8-76.7,76.9
		C123.7,219.9,156.6,253,200.7,253z"/>
	<path d="M291.4,249.5c0.6-7.3,1.1-13.5,1.7-19.7c8.4-1.2,16.5-1.8,24.4-3.5c33.4-7.3,53.2-28.9,58.7-63.4
		c6.6-42-17.9-78.2-59.4-87.3c-17.9-4-34.9-0.2-51.4,7c-2.3,1-4.5,2.1-7.3,3.4c-3.7-5.6-7.5-11.2-11.4-17.1
		c8.7-7.5,18.7-12,29.6-14.6c46-11,93.6,12.2,114.2,55.7c20,42.1,7.3,91.5-30.9,120.6c-15.1,11.5-31.9,19.1-51.1,20
		C303,250.6,297.5,249.9,291.4,249.5z"/>
	<path d="M402.7,429.7c-1.1-7.5-2.2-14.7-3.4-22.2c22.4-4,44.4-7.9,66.7-11.8c-4.9-31.3-14.4-60.3-32.6-86.1
		c-18.2-25.8-42.7-43.8-71.8-56.7c2.6-6.8,5.1-13.5,8-21.2c8.8,4.4,17.5,8,25.4,12.8c47,28.7,75.3,70.9,88.8,123.7
		c2.5,9.7,4.1,19.7,6,29.6c1.1,5.8-2.1,9.8-6.1,13.3c-6.3,5.6-14.1,7-22,8.3c-17.7,3-35.3,6.3-52.9,9.4
		C406.9,429.2,405,429.4,402.7,429.7z"/>
</g>
</svg>
