<?xml version="1.0" encoding="utf-8"?>
<svg version="1.1" id="Layer_1" xmlns="http://www.w3.org/2000/svg" xmlns:xlink="http://www.w3.org/1999/xlink" x="0px" y="0px"
	viewBox="0 0 128 128" style="enable-background:new 0 0 128 128;" xml:space="preserve">
<style type="text/css">
	.st0{fill:#242B3B;}
</style>
<path class="st0" d="M112.5,127L112.5,127l-46.8-0.1H15.5c-1,0-1.8-0.8-1.8-1.8V44.6c0-1,0.8-1.8,1.8-1.8h25v-40
	c0-1,0.8-1.8,1.8-1.8h70.2c1,0,1.8,0.8,1.8,1.8v122.4c0,0.5-0.2,0.9-0.5,1.3C113.4,126.8,112.9,127,112.5,127z M67.4,123.3l43.2,0.1
	V4.6H44.1v38.2h21.5c1,0,1.8,0.8,1.8,1.8V123.3z M17.3,123.3h46.5V46.4H17.3V123.3z M58.3,111.7H44.2c-1,0-1.8-0.8-1.8-1.8v-8.3
	c0-1,0.8-1.8,1.8-1.8h14.2c1,0,1.8,0.8,1.8,1.8v8.3C60.1,110.9,59.3,111.7,58.3,111.7z M46,108.1h10.6v-4.7H46V108.1z M37,111.7
	H22.8c-1,0-1.8-0.8-1.8-1.8v-8.3c0-1,0.8-1.8,1.8-1.8H37c1,0,1.8,0.8,1.8,1.8v8.3C38.8,110.9,38,111.7,37,111.7z M24.6,108.1h10.6
	v-4.7H24.6V108.1z M100.3,110.8h-6.8c-1,0-1.8-0.8-1.8-1.8v-7.4c0-1,0.8-1.8,1.8-1.8h6.8c1,0,1.8,0.8,1.8,1.8v7.4
	C102.1,110,101.3,110.8,100.3,110.8z M95.3,107.2h3.3v-3.9h-3.3V107.2z M80.6,110.8h-6.8c-1,0-1.8-0.8-1.8-1.8v-7.4
	c0-1,0.8-1.8,1.8-1.8h6.8c1,0,1.8,0.8,1.8,1.8v7.4C82.4,110,81.6,110.8,80.6,110.8z M75.5,107.2h3.3v-3.9h-3.3V107.2z M58.3,95.5
	H44.2c-1,0-1.8-0.8-1.8-1.8v-8.3c0-1,0.8-1.8,1.8-1.8h14.2c1,0,1.8,0.8,1.8,1.8v8.3C60.1,94.7,59.3,95.5,58.3,95.5z M46,91.9h10.6
	v-4.7H46V91.9z M37,95.5H22.8c-1,0-1.8-0.8-1.8-1.8v-8.3c0-1,0.8-1.8,1.8-1.8H37c1,0,1.8,0.8,1.8,1.8v8.3C38.8,94.7,38,95.5,37,95.5
	z M24.6,91.9h10.6v-4.7H24.6V91.9z M100.3,93h-6.8c-1,0-1.8-0.8-1.8-1.8v-7.4c0-1,0.8-1.8,1.8-1.8h6.8c1,0,1.8,0.8,1.8,1.8v7.4
	C102.1,92.1,101.3,93,100.3,93z M95.3,89.4h3.3v-3.9h-3.3V89.4z M80.6,93h-6.8c-1,0-1.8-0.8-1.8-1.8v-7.4c0-1,0.8-1.8,1.8-1.8h6.8
	c1,0,1.8,0.8,1.8,1.8v7.4C82.4,92.1,81.6,93,80.6,93z M75.5,89.4h3.3v-3.9h-3.3V89.4z M58.3,79.3H44.2c-1,0-1.8-0.8-1.8-1.8v-8.3
	c0-1,0.8-1.8,1.8-1.8h14.2c1,0,1.8,0.8,1.8,1.8v8.3C60.1,78.5,59.3,79.3,58.3,79.3z M46,75.7h10.6V71H46V75.7z M37,79.3H22.8
	c-1,0-1.8-0.8-1.8-1.8v-8.3c0-1,0.8-1.8,1.8-1.8H37c1,0,1.8,0.8,1.8,1.8v8.3C38.8,78.5,38,79.3,37,79.3z M24.6,75.7h10.6V71H24.6
	V75.7z M100.3,75.1h-6.8c-1,0-1.8-0.8-1.8-1.8v-7.4c0-1,0.8-1.8,1.8-1.8h6.8c1,0,1.8,0.8,1.8,1.8v7.4
	C102.1,74.3,101.3,75.1,100.3,75.1z M95.3,71.5h3.3v-3.9h-3.3V71.5z M80.6,75.1h-6.8c-1,0-1.8-0.8-1.8-1.8v-7.4c0-1,0.8-1.8,1.8-1.8
	h6.8c1,0,1.8,0.8,1.8,1.8v7.4C82.4,74.3,81.6,75.1,80.6,75.1z M75.5,71.5h3.3v-3.9h-3.3V71.5z M58.3,63.1H44.2c-1,0-1.8-0.8-1.8-1.8
	V53c0-1,0.8-1.8,1.8-1.8h14.2c1,0,1.8,0.8,1.8,1.8v8.3C60.1,62.3,59.3,63.1,58.3,63.1z M46,59.5h10.6v-4.7H46V59.5z M37,63.1H22.8
	c-1,0-1.8-0.8-1.8-1.8V53c0-1,0.8-1.8,1.8-1.8H37c1,0,1.8,0.8,1.8,1.8v8.3C38.8,62.3,38,63.1,37,63.1z M24.6,59.5h10.6v-4.7H24.6
	V59.5z M100.3,57.3h-6.8c-1,0-1.8-0.8-1.8-1.8v-7.4c0-1,0.8-1.8,1.8-1.8h6.8c1,0,1.8,0.8,1.8,1.8v7.4
	C102.1,56.5,101.3,57.3,100.3,57.3z M95.3,53.7h3.3v-3.9h-3.3V53.7z M80.6,57.3h-6.8c-1,0-1.8-0.8-1.8-1.8v-7.4c0-1,0.8-1.8,1.8-1.8
	h6.8c1,0,1.8,0.8,1.8,1.8v7.4C82.4,56.5,81.6,57.3,80.6,57.3z M75.5,53.7h3.3v-3.9h-3.3V53.7z M100.3,39.4h-6.8
	c-1,0-1.8-0.8-1.8-1.8v-7.4c0-1,0.8-1.8,1.8-1.8h6.8c1,0,1.8,0.8,1.8,1.8v7.4C102.1,38.6,101.3,39.4,100.3,39.4z M95.3,35.9h3.3V32
	h-3.3V35.9z M80.6,39.4h-6.8c-1,0-1.8-0.8-1.8-1.8v-7.4c0-1,0.8-1.8,1.8-1.8h6.8c1,0,1.8,0.8,1.8,1.8v7.4
	C82.4,38.6,81.6,39.4,80.6,39.4z M75.5,35.9h3.3V32h-3.3V35.9z M60.8,39.4H54c-1,0-1.8-0.8-1.8-1.8v-7.4c0-1,0.8-1.8,1.8-1.8h6.8
	c1,0,1.8,0.8,1.8,1.8v7.4C62.6,38.6,61.8,39.4,60.8,39.4z M55.8,35.9H59V32h-3.3L55.8,35.9L55.8,35.9z M100.3,21.6h-6.8
	c-1,0-1.8-0.8-1.8-1.8v-7.4c0-1,0.8-1.8,1.8-1.8h6.8c1,0,1.8,0.8,1.8,1.8v7.4C102.1,20.8,101.3,21.6,100.3,21.6z M95.3,18h3.3v-3.9
	h-3.3V18z M80.6,21.6h-6.8c-1,0-1.8-0.8-1.8-1.8v-7.4c0-1,0.8-1.8,1.8-1.8h6.8c1,0,1.8,0.8,1.8,1.8v7.4
	C82.4,20.8,81.6,21.6,80.6,21.6z M75.5,18h3.3v-3.9h-3.3V18z M60.8,21.6H54c-1,0-1.8-0.8-1.8-1.8v-7.4c0-1,0.8-1.8,1.8-1.8h6.8
	c1,0,1.8,0.8,1.8,1.8v7.4C62.6,20.8,61.8,21.6,60.8,21.6z M55.8,18H59v-3.9h-3.3L55.8,18L55.8,18z"/>
<rect x="92.9" y="13.2" class="st0" width="8" height="5.7"/>
<rect x="92.9" y="31.1" class="st0" width="8" height="5.7"/>
<rect x="92.9" y="48.9" class="st0" width="8" height="5.7"/>
<rect x="93.1" y="66.6" class="st0" width="8" height="5.7"/>
<rect x="92.9" y="84.4" class="st0" width="8" height="5.7"/>
<rect x="92.9" y="102.4" class="st0" width="8" height="5.7"/>
<rect x="73.5" y="13.4" class="st0" width="8" height="5.7"/>
<rect x="73.5" y="31.2" class="st0" width="8" height="5.7"/>
<rect x="73.5" y="49" class="st0" width="8" height="5.7"/>
<rect x="73.5" y="84.5" class="st0" width="8" height="5.7"/>
<rect x="73.5" y="102.6" class="st0" width="8" height="5.7"/>
<rect x="73.1" y="66.8" class="st0" width="8" height="5.7"/>
<rect x="53.4" y="31.2" class="st0" width="8" height="5.7"/>
<rect x="53.3" y="13.2" class="st0" width="8" height="5.7"/>
<rect x="45.4" y="53.8" class="st0" width="12" height="6.7"/>
<rect x="23.9" y="53.8" class="st0" width="12" height="6.7"/>
<rect x="23.9" y="70" class="st0" width="12" height="6.7"/>
<rect x="45.4" y="70" class="st0" width="12" height="6.7"/>
<rect x="23.9" y="85.9" class="st0" width="12" height="6.7"/>
<rect x="45.4" y="85.9" class="st0" width="12" height="6.7"/>
<rect x="23.9" y="102.4" class="st0" width="12" height="6.7"/>
<rect x="45.4" y="102.4" class="st0" width="12" height="6.7"/>
</svg>
