<?xml version="1.0" encoding="utf-8"?>
<svg version="1.1" id="Layer_1" xmlns="http://www.w3.org/2000/svg" xmlns:xlink="http://www.w3.org/1999/xlink" x="0px" y="0px"
	 viewBox="0 0 128 128" style="enable-background:new 0 0 128 128;" xml:space="preserve">
<style type="text/css">
	.st0{fill:#242B3B;}
</style>
<g>
	<g>
		<g>
			<path class="st0" d="M64,53.5c8.7,0,15.7-7,15.7-15.7S72.7,22,64,22s-15.7,7-15.7,15.7S55.3,53.5,64,53.5z M64,32.5
				c2.9,0,5.2,2.3,5.2,5.2s-2.3,5.2-5.2,5.2c-2.9,0-5.2-2.3-5.2-5.2C58.8,34.8,61.1,32.5,64,32.5z"/>
			<path class="st0" d="M126.9,120.7l-10.5-52.5c-0.5-2.5-2.6-4.2-5.1-4.2H90.8c0.3-0.5,0.7-1.1,1-1.6l0.3-0.4
				c1.4-2.3,2.1-3.4,3-4.7c3.7-5.8,5.7-12.5,5.7-19.6c0-21.9-19-39-41-36.5C43.4,3.1,30,16.2,27.7,32.5c-1.4,9.8,1.1,19.3,6.8,27
				c1.1,1.5,2.2,3,3.2,4.5H16.8c-2.5,0-4.7,1.8-5.1,4.2L1.1,120.7C0.5,124,2.9,127,6.3,127h115.5C125.1,127,127.5,124,126.9,120.7z
				 M38,34c1.6-11.6,11.3-21,22.9-22.3c15.8-1.8,29.4,10.4,29.4,26.1c0,5-1.4,9.8-4,14c-0.8,1.3-1.5,2.4-3,4.6L83,56.8
				C73.1,72.3,68.7,79.7,64,89c-8.2-16.1-13.8-25.9-21.1-35.8C38.8,47.8,37,41,38,34z M12.7,116.5l8.4-42h23.1
				C48,81,51.8,88.1,56.4,97.3c0.3,0.5,0.5,1,0.8,1.5l2.1,4.3c1.9,3.9,7.5,3.9,9.4,0l4.5-9.1c3-6,6.5-12.1,11.1-19.5H107l8.4,42
				C115.4,116.5,12.7,116.5,12.7,116.5z"/>
		</g>
	</g>
</g>
</svg>
