<?xml version="1.0" encoding="utf-8"?>
<svg version="1.1"
	 id="Layer_1" shape-rendering="geometricPrecision" image-rendering="optimizeQuality" text-rendering="geometricPrecision"
	 xmlns="http://www.w3.org/2000/svg" xmlns:xlink="http://www.w3.org/1999/xlink" x="0px" y="0px" width="502px" height="511.8px"
	 viewBox="0 0 502 511.8" style="enable-background:new 0 0 502 511.8;" xml:space="preserve">
<style type="text/css">
	.st0{fill:#26699C;}
</style>
<g>
	<path class="st0" d="M12.4,424c0.5-4.7,0.9-9.3,1.4-14c3.3-28.5,12.1-55.2,26.7-79.8c24.7-41.6,60-70.7,105-88.2
		c1.9-0.8,3.9-1.5,6.1-2.4c-3.9-3.2-7.7-6-11.2-9c-23.9-20.5-38.4-46.3-42.1-77.6c-4.1-34.6,5.3-65.6,27.7-92.3
		c19.7-23.4,45-37.2,75.2-42c52.6-8.3,106.6,20.6,128.6,68.9c23.6,51.6,9.5,110.3-35,145.6c-6.3,5-12.4,10.5-19.8,14.1
		c-11.4,5.5-23.4,8.7-35.8,10.2c-10.3,1.3-20.7,1.8-31,2.4c-35.5,2.3-67.4,14.1-95.6,35.7c-33.8,25.9-55.5,59.8-64.9,101.5
		c-2.7,11.8-3.9,23.8-3.9,36c0,8.4,0,16.7,0,25.1c0,0.7,0.1,1.4,0.2,2.4c1.3,0,2.4,0,3.5,0c62.7,0,125.4,0,188.1,0
		c2.2,0,3.4,0.5,4.4,2.7c4.3,9.2,9.6,17.8,15.7,26c0.5,0.7,1,1.4,1.9,2.6c-1.5,0-2.5,0-3.6,0c-74.1,0-148.3,0-222.4,0
		c-11.2,0-15.2-2.7-19.2-13C12.4,460.3,12.4,442.1,12.4,424z M219.3,48.5c-49.8-0.1-90.4,40.2-90.5,89.7
		c-0.1,49.5,40.5,90,90.3,90.1c49.8,0.1,90.6-40.2,90.7-89.8C309.9,89,269.3,48.6,219.3,48.5z"/>
	<path class="st0" d="M489.5,380.6c-0.6,5-1.2,10-2,14.9c-0.6,3.3-1.2,6.8-2.5,9.8c-2.7,6.4-7.4,9.8-14.7,9.9
		c-14.8,0.1-26.7,11.9-26.5,26.4c0,3.4,1.1,6.9,2.2,10.1c3.7,10.3,0.4,19.7-9.2,25c-9.1,5.1-18.3,10.1-27.4,15.1
		c-8.4,4.6-17.8,3-24.9-3.5c-4.4-4.1-9.3-7.8-14.3-11.2c-4.8-3.2-10.1-3.1-15.2-0.3c-5.5,3-10.3,6.9-14.8,11.3
		c-5.6,5.4-12.3,7-19.7,5.2c-1.4-0.3-2.8-1-4-1.7c-9.1-5.1-18.3-10.2-27.4-15.2c-9-5-12.9-15-8.9-24.5c7.2-17.1-4.2-33.2-18.5-36.2
		c-1.9-0.4-3.9-0.7-5.8-0.7c-7.2,0.1-12.3-3.4-14.6-9.9c-1.8-4.9-2.5-10.2-3.4-15.4c-2.1-13.1-1.1-26.1,1.5-38.9
		c0.6-3.2,1.9-6.4,3.5-9.2c2.6-4.4,6.7-6.7,11.9-6.7c8.9,0,16.4-3.1,21.9-10.2c6.4-8.3,7.2-17.3,3.3-27c-3.7-9.2,0-19.2,8.7-24
		c2.3-1.3,4.5-2.5,6.8-3.8c7.3-4,14.6-8,21.9-12c8.1-4.4,17.6-3.2,24.3,3.1c4.5,4.3,9.3,8.1,14.8,11c4.7,2.5,9.6,2.9,14.2,0
		c5-3.2,9.9-6.7,14.5-10.5c5.8-4.9,12.2-6.9,19.6-5.2c1.6,0.3,3.1,1,4.5,1.8c9.2,5.1,18.4,10.2,27.6,15.3
		c9.5,5.3,13.2,15.1,9.1,25.1c-5.2,12.6,0,23.9,6.9,29.9c4.7,4.1,10.2,6.2,16.4,6.6c10.8,0.7,16,5.5,17.8,16.2
		c0.9,5.4,1.4,10.8,2.1,16.1c0.1,0.6,0.3,1.3,0.4,1.9C489.5,373.2,489.5,376.9,489.5,380.6z M304.3,293.1c0.7,3.7,1.8,7.3,2.1,10.9
		c2.5,26.5-15.6,50.2-41.9,54.7c-1.7,0.3-2.1,1-2.3,2.5c-1.5,9.5-1.4,18.9,0,28.3c0.2,1.5,0.8,2.2,2.4,2.4
		c24.5,3.7,43.4,26.8,42,51.6c-0.3,4.6-1.4,9.2-2.1,14.1c6.7,3.8,13.8,7.7,20.3,11.4c5.6-4.1,10.7-8.2,16.2-11.5
		c9.7-6,20.3-8.6,31.6-5.2c10,3,18.3,8.9,25.9,15.9c1.2,1.1,2.1,1.3,3.5,0.5c4-2.3,8.1-4.5,12.1-6.7c2.7-1.5,5.5-3.1,8-4.5
		c-0.7-3.6-1.7-6.9-2.1-10.3c-2.8-26.6,15.4-50.7,41.8-55.2c1.4-0.2,2.1-0.7,2.3-2.2c1.5-9.6,1.4-19.2-0.1-28.8
		c-0.2-1.4-0.7-1.9-2.2-2.3c-3.9-0.9-7.9-1.9-11.6-3.4c-20-8.3-32.6-29.6-30.3-51.2c0.4-3.7,1.4-7.3,2.1-11
		c-6.8-3.8-13.6-7.5-20.4-11.4c-1.2-0.7-1.8-0.2-2.7,0.5c-4.7,3.5-9.2,7.2-14.2,10.2c-11.6,6.9-23.8,8.3-36.5,2.7
		c-7.3-3.3-13.8-7.8-19.8-13.1c-0.6-0.5-1.8-0.9-2.4-0.6C318.6,285.2,311.4,289.2,304.3,293.1z"/>
	<path class="st0" d="M362.5,422c-25.9,0-46.9-21.2-46.8-47.2c0.1-25.8,21.1-46.8,47-46.8c25.8,0,46.9,21.2,46.9,47
		C409.6,401,388.4,422.1,362.5,422z M362.7,397.8c12.7-0.1,22.8-10.3,22.7-23c-0.1-12.5-10.4-22.5-22.9-22.5
		c-12.5,0.1-22.7,10.3-22.6,22.9C339.9,387.8,350.1,397.9,362.7,397.8z"/>
</g>
</svg>
