<?xml version="1.0" encoding="utf-8"?>
<svg version="1.1" id="Layer_1" xmlns="http://www.w3.org/2000/svg" xmlns:xlink="http://www.w3.org/1999/xlink" x="0px" y="0px"
	 width="128px" height="128px" viewBox="0 0 128 128" style="enable-background:new 0 0 128 128;" xml:space="preserve">
<style type="text/css">
	.st0{fill:#242B3B;}
</style>
<circle class="st0" cx="79.9" cy="103.9" r="8.1"/>
<circle class="st0" cx="79.9" cy="23.2" r="8.1"/>
<circle class="st0" cx="11.3" cy="63.6" r="8.1"/>
<path class="st0" d="M108,47.5c-7.4,0-13.7,5-15.6,12.1H75.3C73.1,51,64.4,45.7,55.8,47.9c-0.9,0.2-1.8,0.5-2.8,0.9l-12.8-16
	c2.2-2.8,3.3-6.1,3.3-9.6c0-8.9-7.2-16.1-16.1-16.1s-16.1,7.3-16.1,16.1s7.3,16.1,16.1,16.1c2.3,0,4.5-0.5,6.6-1.4l12.8,16
	c-4.4,5.6-4.4,13.6,0,19.2L34,89.1c-2-0.9-4.3-1.4-6.6-1.4c-8.9,0-16.1,7.3-16.1,16.1s7.3,16.1,16.1,16.1s16.1-7.1,16.1-16
	c0-3.5-1.1-6.9-3.3-9.6l12.8-16c8,3.7,17.5,0.1,21.2-7.9c0.4-0.9,0.7-1.8,0.9-2.8h17.3c2.3,8.6,11.1,13.7,19.7,11.6
	c8.6-2.3,13.7-11.1,11.6-19.7C121.9,52.4,115.4,47.4,108,47.5z M19.4,23.2c0-4.4,3.6-8.1,8.1-8.1s8.1,3.6,8.1,8.1s-3.7,8.1-8.1,8.1
	C23,31.3,19.4,27.7,19.4,23.2z M27.5,111.9c-4.4,0-8.1-3.6-8.1-8.1c0-4.4,3.6-8.1,8.1-8.1s8.1,3.6,8.1,8.1S31.9,111.9,27.5,111.9z
	 M59.7,71.6c-4.4,0-8.1-3.6-8.1-8.1s3.6-8.1,8.1-8.1s8.1,3.6,8.1,8.1C67.8,68,64.1,71.6,59.7,71.6z M108,71.6
	c-4.4,0-8.1-3.6-8.1-8.1s3.6-8.1,8.1-8.1s8.1,3.6,8.1,8.1S112.5,71.6,108,71.6z"/>
</svg>
