<?xml version="1.0" encoding="utf-8"?>
<svg version="1.1" id="Layer_1" xmlns="http://www.w3.org/2000/svg" xmlns:xlink="http://www.w3.org/1999/xlink" x="0px" y="0px"
	 viewBox="0 0 128 128" style="enable-background:new 0 0 128 128;" xml:space="preserve">
<style type="text/css">
	.st0{fill:#242B3B;}
</style>
<g>
	<g>
		<path class="st0" d="M117,100.2h-6.9V49.8H127L64,3.6L1,49.8h16.9v50.4H11c-4,0-7.2,3.2-7.2,7.2v17.2h120.4v-17.2
			C124.2,103.4,121,100.2,117,100.2z M15.7,45L64,9.6L112.3,45H15.7z M105.3,49.8v50.4H92.6V49.8H105.3z M87.8,49.8v50.4H75.2V49.8
			H87.8z M70.3,49.8v50.4H57.7V49.8H70.3z M52.8,49.8v50.4H40.2V49.8H52.8z M35.4,49.8v50.4H22.7V49.8H35.4z M119.4,119.8H8.6v-12.4
			c0-1.3,1.1-2.4,2.4-2.4h106c1.3,0,2.4,1.1,2.4,2.4V119.8z"/>
	</g>
</g>
<g>
	<g>
		<path class="st0" d="M64,20.8c-5.4,0-9.8,4.4-9.8,9.8s4.4,9.8,9.8,9.8s9.8-4.4,9.8-9.8S69.4,20.8,64,20.8z M64,35.5
			c-2.8,0-5-2.2-5-4.9s2.3-4.9,5-4.9c2.8,0,5,2.2,5,4.9S66.8,35.5,64,35.5z"/>
	</g>
</g>
</svg>
