<?xml version="1.0" encoding="utf-8"?>
<svg version="1.1" id="Layer_1" xmlns="http://www.w3.org/2000/svg" xmlns:xlink="http://www.w3.org/1999/xlink" x="0px" y="0px"
	 width="512px" height="512px" viewBox="0 0 512 512" style="enable-background:new 0 0 512 512;" xml:space="preserve">
<style type="text/css">
	.st0{display:none;}
	.st1{display:inline;}
</style>
<g class="st0">
	<g class="st1">
		<path d="M256,285.1c-45.8,0.1-85.2-32.2-94.2-77.1c-1.3-8.7,4.7-16.9,13.4-18.2c0.9-0.1,1.7-0.2,2.6-0.2c7.9-0.1,14.7,5.5,16,13.3
			c7.2,34.6,41.2,56.8,75.8,49.5c24.9-5.2,44.3-24.6,49.5-49.5c1.3-7.8,8.1-13.4,16-13.3c8.8-0.1,16.1,7,16.2,15.8
			c0,0.9-0.1,1.7-0.2,2.6C342,253.2,302.1,285.6,256,285.1z"/>
		<path d="M398.4,496H113.6c-26.5,0-48-21.4-48.1-47.9c0-0.8,0-1.6,0.1-2.5l13-275.8c1.1-25.7,22.3-45.9,48-45.9h258.9
			c25.7,0,46.9,20.2,48,45.9l13,275.8c1.3,26.5-19.1,49-45.5,50.3C400,496,399.2,496,398.4,496z M126.6,156c-8.8,0-16,7.2-16,16
			l-13,275.2c-0.4,8.8,6.4,16.3,15.2,16.8c0.3,0,0.5,0,0.8,0h284.8c8.8,0,16-7.1,16-16c0-0.3,0-0.5,0-0.8l-13-275.8
			c0-8.8-7.2-16-16-16L126.6,156z"/>
		<path d="M352,140h-32v-28c0-35.3-28.7-64-64-64s-64,28.7-64,64v28h-32v-28c0-53,43-96,96-96s96,43,96,96V140z"/>
	</g>
</g>
<path class="st0" d="M287.4,175c0-8-6.5-14.5-14.5-14.5s-14.5,6.5-14.5,14.5v43.6h-43.6c-8,0-14.5,6.5-14.5,14.5
	c0,8,6.5,14.5,14.5,14.5h43.6v43.6c0,8,6.5,14.5,14.5,14.5s14.5-6.5,14.5-14.5v-43.6H331c8,0,14.5-6.5,14.5-14.5
	c0-8-6.5-14.5-14.5-14.5h-43.6V175z"/>
<path class="st0" d="M41.3,44c-8,0-14.5,6.5-14.5,14.5s6.5,14.5,14.5,14.5h32.3l11.7,46.7l43.5,232.1c1.3,6.9,7.3,11.9,14.3,11.9
	h29.1c-32.1,0-58.1,26-58.1,58.1s26,58.1,58.1,58.1s58.1-26,58.1-58.1s-26-58.1-58.1-58.1h203.5c-32.1,0-58.1,26-58.1,58.1
	s26,58.1,58.1,58.1s58.1-26,58.1-58.1s-26-58.1-58.1-58.1h29.1c7,0,13-5,14.3-11.9l43.6-232.5c1.5-7.9-3.7-15.5-11.6-17
	c-0.9-0.2-1.8-0.2-2.7-0.2H110.7L99,55c-1.6-6.5-7.4-11-14.1-11H41.3z M155.1,334.7l-38.2-203.5h313.8l-38.2,203.5H155.1z
	 M201.1,421.9c0,16.1-13,29.1-29.1,29.1s-29.1-13-29.1-29.1s13-29.1,29.1-29.1S201.1,405.8,201.1,421.9z M404.6,421.9
	c0,16.1-13,29.1-29.1,29.1s-29.1-13-29.1-29.1s13-29.1,29.1-29.1S404.6,405.8,404.6,421.9z"/>
<g>
	<path d="M113,63c2,4.3,4,8.6,6.1,12.8c27.5,56.7,55,113.4,82.5,170.1c0.6,1.2,1.2,1.6,2.6,1.6c48,0,96,0,144.1,0
		c1.3,0,1.9-0.4,2.5-1.5c26.5-47,53.1-94,79.6-140.9c0.2-0.3,0.4-0.7,0.7-1.2c0.4,0.2,0.9,0.4,1.3,0.6c11.4,6.1,22.8,12.3,34.2,18.4
		c0.4,0.2,0.9,0.4,1.3,0.6c0,0.1,0,0.2,0,0.3c-3.4,5.9-6.7,11.8-10.1,17.8c-23.5,41.7-47,83.3-70.5,125
		c-6.9,12.2-17.3,19.2-31.1,21.4c-2.3,0.3-4.7,0.4-7,0.4c-51.3,0-102.6,0-153.9,0c-1.4,0-2.1,0.4-2.8,1.6
		c-5.7,10.3-11.6,20.6-17.4,30.9c-0.6,1.2-1.1,2.6-1.1,4c0,2.2,2.2,4.2,4.5,4.5c0.7,0,1.4,0,2,0c80,0,160,0,240,0c0.6,0,1.1,0,1.8,0
		c0,13.7,0,27.3,0,41c-0.4,0-0.9,0-1.3,0c-83.5,0-166.9,0-250.4,0c-18.6,0-34.7-11.4-40.3-28.5c-3.6-11-2.6-21.8,3.1-31.9
		c9.2-16.5,18.6-33,27.9-49.4c0.4-0.8,0.5-1.4,0.1-2.2c-24.9-51.1-49.7-102.2-74.5-153.3c-0.4-0.8-0.8-1.2-1.8-1.2
		c-13.6,0-27.2,0-40.8,0c0-13.7,0-27.4,0-41C67.1,63,90.1,63,113,63z"/>
	<path d="M166.8,473.1c-2.5-0.5-5.2-0.7-7.6-1.5c-16.6-5.1-27.1-15.9-30.1-33.1c-3.2-18.2,6.5-35.6,23.3-43.5
		c23.5-11,51.6,1.7,58.5,26.5c5.4,19.2-4.5,39.7-23.3,48c-4.1,1.8-8.5,3-13,3.4c-0.3,0-0.6,0.1-1,0.2
		C171.3,473.1,169.1,473.1,166.8,473.1z"/>
	<path d="M377,473.1c-2.6-0.5-5.2-0.8-7.8-1.5c-15.9-4.2-28.2-17.9-30.3-34c-2.4-17.8,7-34.9,23.5-42.6
		c23.6-11.1,51.9,1.8,58.6,26.8c5.1,18.9-4.6,39-22.9,47.4c-4.3,2-8.8,3.2-13.5,3.7c-0.3,0-0.5,0.1-0.8,0.2
		C381.5,473.1,379.3,473.1,377,473.1z"/>
</g>
</svg>
