<?xml version="1.0" encoding="utf-8"?>
<svg version="1.1" id="Layer_1" xmlns="http://www.w3.org/2000/svg" xmlns:xlink="http://www.w3.org/1999/xlink" x="0px" y="0px"
	 width="448px" height="512px" viewBox="0 0 448 512" style="enable-background:new 0 0 448 512;" xml:space="preserve">
<style type="text/css">
	.st0{fill:#00DA6F;}
	.st1{display:none;fill:#FDFEFE;}
	.st2{display:none;fill:#59E6A0;}
	.st3{display:none;fill:#FDFEFD;}
</style>
<g>
	<path class="st0" d="M9,246.9c0-1.2,0-2.3,0-3.5c0.3-0.7,0.6-1.4,0.7-2.1c1.5-10.2,2.2-20.6,4.4-30.6C25,160.6,50.5,119.3,90.3,87
		c31.7-25.7,68-41,108.6-46.2c4.4-0.6,8.8-1.3,13.1-2c9.5,0,19.1,0,28.6,0c0.7,0.3,1.4,0.6,2.1,0.7c10.1,1.5,20.3,2.5,30.2,4.6
		c47.4,10.5,86.9,34.3,118.4,71.1c30.2,35.4,47.2,76.4,51.1,122.8c0.2,2.7,0.9,5.3,1.3,8c0,6.7,0,13.5,0,20.2
		c-0.3,0.7-0.6,1.4-0.7,2.1c-1.2,9-1.9,18-3.5,26.9c-7.1,39.4-23.9,74.2-50.5,104.1c-35.8,40.2-80.5,64.2-133.9,71.6
		c-3.7,0.5-7.4,1.3-11,1.9c-12.1,0-24.2,0-36.3,0c-0.6-0.3-1.1-0.7-1.7-0.7c-6.8-1-13.6-1.6-20.3-3C127,457.2,80.3,426.6,46.4,377.2
		C26.7,348.7,15.1,316.7,11,282c-0.5-4.3-1.3-8.5-2-12.8c0-1.2,0-2.3,0-3.5c0.2-2.7,0.6-5.4,0.6-8C9.6,254.1,9.2,250.5,9,246.9z
		 M189.7,306.2c-1.6-2-2.8-3.8-4.3-5.2c-13.8-13.8-27.6-27.7-41.4-41.5c-5.9-5.8-13.2-6-18.9-0.5c-5.9,5.7-11.7,11.6-17.4,17.6
		c-1.4,1.5-2.5,3.4-3.1,5.3c-2,6,0.9,10.4,5,14.5c13.8,13.7,27.5,27.5,41.2,41.2c10,10,19.9,20.3,30.3,29.9
		c10.4,9.5,22.6,7.9,30.5-3.6c9-13,17.8-26.2,26.6-39.2c31.6-46.6,63.1-93.1,94.7-139.7c5.2-7.6,4.1-14.6-3.4-19.9
		c-6.3-4.4-12.6-8.7-19-13c-6.9-4.6-14.3-2.9-19,4.1c-29.7,43.9-59.5,87.7-89.2,131.6C198.3,293.6,194.3,299.4,189.7,306.2z"/>
	<path class="st1" d="M443.9,246.2c-0.4-2.7-1.1-5.3-1.3-8c-4-46.4-20.9-87.5-51.1-122.8C360,78.6,320.4,54.8,273,44.3
		c-9.9-2.2-20.2-3.1-30.2-4.6c-0.7-0.1-1.4-0.5-2.1-0.7c67.7,0,135.4,0,203.1,0C443.9,108,443.9,177.1,443.9,246.2z"/>
	<path class="st1" d="M212.1,38.9c-4.4,0.7-8.7,1.4-13.1,2c-40.5,5.2-76.8,20.5-108.6,46.2c-39.8,32.3-65.3,73.6-76.2,123.7
		c-2.2,10-3,20.4-4.4,30.6c-0.1,0.7-0.5,1.4-0.7,2.1c0-68.1,0-136.2,0-204.5C76.7,38.9,144.4,38.9,212.1,38.9z"/>
	<path class="st1" d="M244.2,473.1c3.7-0.7,7.3-1.4,11-1.9c53.4-7.4,98.1-31.4,133.9-71.6c26.6-29.9,43.4-64.7,50.5-104.1
		c1.6-8.9,2.3-17.9,3.5-26.9c0.1-0.7,0.5-1.4,0.7-2.1c0,68.8,0,137.6,0,206.6C377.3,473.1,310.8,473.1,244.2,473.1z"/>
	<path class="st1" d="M9,269.3c0.7,4.3,1.5,8.5,2,12.8c4.1,34.7,15.8,66.6,35.5,95.4c34,49.5,80.6,80,139.4,91.9
		c6.7,1.3,13.5,2,20.3,3c0.6,0.1,1.1,0.5,1.7,0.7c-66.3,0-132.5,0-198.9,0C9,405.1,9,337.2,9,269.3z"/>
	<path class="st2" d="M9,246.9c0.2,3.6,0.6,7.2,0.6,10.8c0,2.7-0.4,5.4-0.6,8C9,259.5,9,253.2,9,246.9z"/>
	<path class="st3" d="M189.7,306.2c4.6-6.7,8.6-12.5,12.5-18.4c29.7-43.9,59.5-87.7,89.2-131.6c4.7-7,12.1-8.7,19-4.1
		c6.4,4.2,12.7,8.6,19,13c7.5,5.3,8.6,12.2,3.4,19.9c-31.6,46.5-63.1,93.1-94.7,139.7c-8.9,13.1-17.6,26.2-26.6,39.2
		c-7.9,11.5-20.1,13.2-30.5,3.6s-20.2-19.9-30.3-29.9c-13.7-13.7-27.4-27.5-41.2-41.2c-4.1-4.1-7-8.5-5-14.5
		c0.6-1.9,1.7-3.9,3.1-5.3c5.7-6,11.5-11.8,17.4-17.6c5.7-5.6,13.1-5.4,18.9,0.5c13.9,13.8,27.7,27.6,41.4,41.5
		C186.9,302.4,188.1,304.1,189.7,306.2z"/>
</g>
</svg>
