<?xml version="1.0" encoding="utf-8"?>
<!DOCTYPE svg PUBLIC "-//W3C//DTD SVG 1.1//EN" "http://www.w3.org/Graphics/SVG/1.1/DTD/svg11.dtd">
<svg version="1.1" id="Layer_1" xmlns="http://www.w3.org/2000/svg" xmlns:xlink="http://www.w3.org/1999/xlink" x="0px" y="0px"
	 width="40px" height="40px" viewBox="0 0 40 40" enable-background="new 0 0 40 40" xml:space="preserve">
<g>
	<path fill="none" stroke="#26699c" stroke-miterlimit="10" d="M27.2,18.3L27.2,18.3c-0.9,0-1.601-0.7-1.601-1.6l0,0
		c0-0.9,0.699-1.6,1.601-1.6l0,0c0.899,0,1.6,0.7,1.6,1.6l0,0C28.7,17.6,28,18.3,27.2,18.3z"/>
	<path fill="none" stroke="#26699c" stroke-miterlimit="10" d="M10,21.4L10,21.4c-0.9,0-1.6-0.7-1.6-1.602l0,0
		c0-0.9,0.7-1.6,1.6-1.6l0,0c0.9,0,1.6,0.7,1.6,1.6l0,0C11.6,20.7,10.9,21.4,10,21.4z"/>
	<path fill="none" stroke="#26699c" stroke-miterlimit="10" d="M18,15.2h-2.3h-1.9H2.3c-0.9,0-1.6-0.7-1.6-1.6l0,0
		c0-0.9,0.7-1.6,1.6-1.6h8.8"/>
	<path fill="none" stroke="#26699c" stroke-miterlimit="10" d="M26.2,29h9.3c2,0,3.7-1.7,3.7-3.7l0,0c0-2-1.7-3.698-3.7-3.698h-9.3
		H15h-5c-0.9,0-1.6-0.701-1.6-1.602l0,0c0-0.9,0.7-1.6,1.6-1.6h5h0.7h11.5c0.899,0,1.6-0.7,1.6-1.6l0,0c0-0.9-0.7-1.6-1.6-1.6H18"/>
	<path fill="none" stroke="#26699c" stroke-miterlimit="10" d="M35.5,28.8L35.5,28.8c-2,0-3.7-1.7-3.7-3.7l0,0
		c0-2,1.7-3.699,3.7-3.699l0,0c2,0,3.7,1.699,3.7,3.699l0,0C39.2,27.2,37.6,28.8,35.5,28.8z"/>
	<path fill="none" stroke="#26699c" stroke-miterlimit="10" d="M16.1,39.8v-7.1c0-2,1.7-3.7,3.7-3.7h9.3"/>
	<path fill="none" stroke="#26699c" stroke-miterlimit="10" d="M19.8,36.4L19.8,36.4c-2,0-3.7-1.7-3.7-3.7l0,0c0-2,1.7-3.7,3.7-3.7
		l0,0c2,0,3.7,1.7,3.7,3.7l0,0C23.5,34.8,21.8,36.4,19.8,36.4z"/>
	<path fill="none" stroke="#26699c" stroke-miterlimit="10" d="M24.2,0.4v8.1c0,1.9-1.601,3.5-3.5,3.5H9.965"/>
	<path fill="none" stroke="#26699c" stroke-miterlimit="10" d="M20.7,12.1L20.7,12.1c-1.9,0-3.5-1.6-3.5-3.5l0,0
		c0-1.9,1.6-3.5,3.5-3.5l0,0c1.899,0,3.5,1.6,3.5,3.5l0,0C24.2,10.5,22.6,12.1,20.7,12.1z"/>
	<circle fill="none" stroke="#ea468f" stroke-miterlimit="10" cx="20.7" cy="8.5" r="1.8"/>
	<circle fill="none" stroke="#ea468f" stroke-miterlimit="10" cx="35.5" cy="25.1" r="1.8"/>
	<circle fill="none" stroke="#ea468f" stroke-miterlimit="10" cx="19.8" cy="32.7" r="1.8"/>
	<path fill="none" stroke="#26699c" stroke-miterlimit="10" d="M2.3,15.2L2.3,15.2c-0.9,0-1.6-0.7-1.6-1.6l0,0
		c0-0.9,0.7-1.6,1.6-1.6l0,0c0.9,0,1.6,0.7,1.6,1.6l0,0C3.9,14.5,3.2,15.2,2.3,15.2z"/>
</g>
</svg>
