<?xml version="1.0" encoding="utf-8"?>
<!DOCTYPE svg PUBLIC "-//W3C//DTD SVG 1.1//EN" "http://www.w3.org/Graphics/SVG/1.1/DTD/svg11.dtd">
<svg version="1.1" id="Layer_1" xmlns="http://www.w3.org/2000/svg" xmlns:xlink="http://www.w3.org/1999/xlink" x="0px" y="0px"
	 width="40px" height="40px" viewBox="0 0 40 40" enable-background="new 0 0 40 40" xml:space="preserve">
<g>
	<path fill="none" stroke="#26699c" stroke-width="1.5" stroke-miterlimit="10" d="M8.8,29.1C11.3,32.9,15,36,19.5,37.8
		c0.3,0.101,0.7,0.101,1.1,0C29.4,34.2,35.2,25.6,35.2,16.1V9.2c0-0.6-0.3-1.1-0.9-1.3l0,0l-6.1-2.5"/>
	<path fill="none" stroke="#26699c" stroke-width="1.5" stroke-miterlimit="10" d="M28.2,5.4L20.6,2.2c-0.3-0.1-0.7-0.1-1.1,0
		L5.7,7.9C5.2,8.1,4.9,8.6,4.9,9.2v6.9c0,4.7,1.4,9.2,3.9,13"/>
	<path fill="none" stroke="#26699c" stroke-width="1.5" stroke-miterlimit="10" d="M20,20"/>
	<polyline fill="none" stroke="#ea468f" stroke-width="1.5" stroke-miterlimit="10" points="13.5,18.6 18.5,23.6 26.5,15.5 	"/>
</g>
</svg>
