<?xml version="1.0" encoding="utf-8"?>
<svg version="1.1"
	 id="Layer_1" shape-rendering="geometricPrecision" image-rendering="optimizeQuality" text-rendering="geometricPrecision"
	 xmlns="http://www.w3.org/2000/svg" xmlns:xlink="http://www.w3.org/1999/xlink" x="0px" y="0px" width="502px" height="511.8px"
	 viewBox="0 0 502 511.8" style="enable-background:new 0 0 502 511.8;" xml:space="preserve">
<style type="text/css">
	.st0{fill:#FFFFFF;}
</style>
<path class="st0" d="M278.7,463.1c13.8-1.8,24.7,11.7,20,24.8c-2.4,6.7-8.1,11.3-15.2,12.3c-16.2,2.1-32.6,2.6-48.9,1.5
	c-60.2-4.1-114.4-30.1-154.5-70.3c-43.8-43.8-70.8-104.2-70.8-171s27.1-127.2,70.8-171s104.2-70.8,171-70.8
	c23.1,0,45.7,3.3,67.2,9.5c17.6,5.1,34.6,12.2,50.7,21.2l-4.8-12.4c-4-10.5,1.3-22.2,11.7-26.1c10.5-4,22.2,1.3,26.1,11.7l20.1,52.7
	c0.8,2,1.2,4.1,1.3,6.3c1.6,9.8-4.3,19.6-14.1,22.5l-53.9,16.5c-10.7,3.2-22-2.8-25.2-13.5s2.8-22,13.5-25.2l4.4-1.4
	c-12.8-6.9-26.3-12.4-40.2-16.5C290,58.7,271,56,251.1,56c-56.4,0-107.5,22.9-144.5,59.9S46.7,204,46.7,260.4s22.9,107.5,59.9,144.5
	c33.5,33.5,78.6,55.5,128.8,59.3C249.7,465.3,264.5,465,278.7,463.1L278.7,463.1z M214.1,162.1c0-10.3,8.4-18.7,18.7-18.7
	s18.7,8.4,18.7,18.7v113.7l77.8,34.2c9.4,4.1,13.7,15.2,9.6,24.6s-15.2,13.7-24.6,9.6l-88.1-38.7c-7.1-2.7-12.1-9.5-12.1-17.5
	L214.1,162.1L214.1,162.1z M343.8,443.1c-15,7.7-13,29.8,3.2,34.6c4.7,1.3,9.4,0.9,13.7-1.3c12.1-6.1,23.6-13.2,34.5-21.2
	c5.3-3.9,8-10.2,7.5-16.7c-1.4-14.5-18-21.9-29.7-13.3C363.7,432,354,438,343.8,443.1z M420,376.2c-8.5,12.7,1,29.8,16.3,29.1
	c6-0.3,11.3-3.2,14.7-8.3c7.6-11.2,14.1-23,19.7-35.3c5.4-12.2-3-25.8-16.3-26.4c-7.6-0.3-14.5,4-17.7,11
	C431.9,356.7,426.4,366.7,420,376.2z M454.3,280.4c-0.7,7.3,2.9,14.2,9.2,17.9c11.9,6.8,26.6-0.8,28-14.4
	c1.3-13.5,1.5-26.9,0.6-40.4c-0.5-6.5-4.2-12.2-10-15.3c-13-6.7-28.3,3.3-27.3,17.9C455.6,257.6,455.4,268.9,454.3,280.4
	L454.3,280.4z M438.9,179.9c4.2,9.7,15.4,14,25,9.6c9.2-4.2,13.3-15,9.3-24.4c-5.3-12.4-11.7-24.3-19-35.7c-9.2-14.1-30.7-10-34,6.5
	c-0.9,4.8,0,9.6,2.6,13.7C429,159.3,434.4,169.3,438.9,179.9z"/>
</svg>
