<?xml version="1.0" encoding="utf-8"?>
<svg version="1.1" id="Layer_1" xmlns="http://www.w3.org/2000/svg" xmlns:xlink="http://www.w3.org/1999/xlink" x="0px" y="0px"
	 width="485px" height="485px" viewBox="0 0 485 485" style="enable-background:new 0 0 485 485;" xml:space="preserve">
<style type="text/css">
	.st0{fill:#0D113C;}
</style>
<path class="st0" d="M406.4,231.7H264.1c-6,0-10.8-4.8-10.8-10.8V78.6c0-6-4.8-10.8-10.8-10.8h0c-6,0-10.8,4.8-10.8,10.8v142.2
	c0,6-4.8,10.8-10.8,10.8H78.6c-6,0-10.8,4.8-10.8,10.8v0c0,6,4.8,10.8,10.8,10.8h142.2c6,0,10.8,4.8,10.8,10.8v142.2
	c0,6,4.8,10.8,10.8,10.8h0c6,0,10.8-4.8,10.8-10.8V264.1c0-6,4.8-10.8,10.8-10.8h142.2c6,0,10.8-4.8,10.8-10.8v0
	C417.2,236.5,412.3,231.7,406.4,231.7z"/>
</svg>
