<?xml version="1.0" encoding="utf-8"?>
<svg version="1.1" id="Layer_1" xmlns="http://www.w3.org/2000/svg" xmlns:xlink="http://www.w3.org/1999/xlink" x="0px" y="0px"
	 viewBox="0 0 512 512" style="enable-background:new 0 0 512 512;" xml:space="preserve">
<style type="text/css">
	.st0{fill:#2A5F9E;}
	.st1{fill:#FFFFFF;}
	.st2{fill:#ED4C5C;}
</style>
<g id="XMLID_2_">
	<path id="XMLID_4_" class="st0" d="M171.1,497.1v-118L83,443.6C108.1,467.2,137.2,484.5,171.1,497.1"/>
	<path id="XMLID_5_" class="st0" d="M340.9,497.1c33-11.8,62.9-29.9,88.1-52.7l-88.1-65.3V497.1"/>
	<path id="XMLID_6_" class="st0" d="M14.5,340.5c2.4,8.7,6.3,16.5,10.2,24.4l33-24.4H14.5"/>
	<path id="XMLID_7_" class="st0" d="M453.4,340.5l33,24.4c3.1-7.9,7.1-16.5,10.2-24.4H453.4"/>
	<path id="XMLID_8_" class="st1" d="M183.6,306.7H105H5.9c2.4,11.8,6.3,22.8,9.4,33.8h43.3l-33.8,25.2c7.1,14.2,14.2,27.5,23.6,40.1
		l88.1-64.5h33.8v16.5L70.4,431c3.9,3.9,7.9,7.9,11.8,11.8l88.1-63.7v117.2c11,3.9,22,7.1,33.8,9.4V353.9v-20.4v-26.7H183.6"/>
	<path id="XMLID_9_" class="st1" d="M506.1,306.7h-98.3h-26h-58.2h-17.3v47.2v152.6c11.8-2.4,22.8-6.3,33.8-9.4v-118l88.9,63.7
		c11.8-11,22-22.8,32.2-36.2L370,340.5h58.2l51.9,38.5c2.4-3.9,5.5-9.4,7.1-13.4l-33-24.4h43.3C500.6,329.5,503.7,318.5,506.1,306.7
		"/>
	<path id="XMLID_10_" class="st2" d="M49.2,405.8c7.1,9.4,13.4,18.1,21.2,26.7l100.7-73.1v-17.3h-33.8L49.2,405.8"/>
	<path id="XMLID_11_" class="st2" d="M370.8,340.5l91.2,66.1c3.1-3.9,6.3-8.7,9.4-12.6c0.8-0.8,0.8-1.6,1.6-1.6
		c2.4-3.9,6.3-9.4,8.7-13.4l-53.5-38.5H370.8"/>
	<path id="XMLID_12_" class="st0" d="M340.9,14.2v118L429,67.6C403.9,44,374.8,26.7,340.9,14.2"/>
	<path id="XMLID_13_" class="st0" d="M171.1,14.2C138,26,108.1,44,83,66.9l88.1,65.3V14.2"/>
	<path id="XMLID_14_" class="st0" d="M497.5,170.7c-2.4-8.7-6.3-16.5-10.2-24.4l-33,24.4H497.5"/>
	<path id="XMLID_15_" class="st0" d="M58.6,170.7l-33.8-25.2c-3.1,8.7-7.1,16.5-10.2,24.4h44"/>
	<path id="XMLID_16_" class="st1" d="M328.4,204.5H407h99.1c-2.4-11.8-6.3-22.8-9.4-33.8h-44l33-24.4c-7.1-14.2-14.2-27.5-23.6-40.1
		l-87.3,64.5h-33.8v-17.3l99.9-73.1c-3.9-3.9-7.9-7.9-11.8-11.8l-88.1,63.7v-118c-11-3.9-22-7.1-33.8-9.4v152.6v20.4v26.7H328.4"/>
	<path id="XMLID_17_" class="st1" d="M5.9,204.5H105h25.2h58.2h17.3v-47.2V4.7c-11.8,2.4-22.8,6.3-33.8,9.4v118L83,68.4
		c-11.8,11-22,22.8-32.2,35.4l91.2,66.9H83.8l-51.9-38.5c-2.4,3.9-4.7,9.4-7.1,13.4l33,24.4H14.5C11.4,181.7,8.3,192.7,5.9,204.5"/>
	<path id="XMLID_18_" class="st2" d="M462.8,105.4c-7.1-9.4-13.4-18.1-21.2-26.7l-100.7,73.1v17.3h33.8L462.8,105.4"/>
	<path id="XMLID_19_" class="st2" d="M141.2,170.7l-90.4-66.9c-3.1,3.9-6.3,8.7-9.4,12.6c-0.8,0.8-0.8,1.6-1.6,1.6
		c-2.4,3.9-6.3,9.4-8.7,13.4L83,169.9h58.2"/>
	<path id="XMLID_20_" class="st2" d="M506.1,204.5h-98.3h-78.6h-22v-26.7v-20.4V4.7C290.6,1.6,274.1,0,256,0s-34.6,1.6-51.1,4.7
		v152.6v47.2h-17.3h-57.4h-26H5.9c-3.1,16.5-5.5,33-5.5,51.1s1.6,34.6,5.5,51.1H105h78.6h22v26.7v20.4v152.6
		c16.5,3.1,33,5.5,51.1,5.5s34.6-1.6,51.1-5.5V353.9v-47.2h17.3h56.6h26h99.1c3.1-16.5,4.7-33,4.7-51.1S510,221,506.1,204.5"/>
</g>
</svg>
