<?xml version="1.0" encoding="utf-8"?>
<svg version="1.1" id="Layer_1" xmlns="http://www.w3.org/2000/svg" xmlns:xlink="http://www.w3.org/1999/xlink" x="0px" y="0px"
	 width="512px" height="512px" viewBox="0 0 512 512" style="enable-background:new 0 0 512 512;" xml:space="preserve">
<style type="text/css">
	.st0{display:none;fill:#FFFFFF;}
</style>
<g>
	<path class="st0" d="M245.7,450.9c-61.6,0-123.1,0-184.7,0c0-130,0-259.9,0-389.9c130,0,259.9,0,389.9,0c0,130,0,259.9,0,389.9
		c-62.1,0-124.1,0-186.2,0c0.9-0.2,1.7-0.5,2.6-0.5c26.9-1.5,52.4-8.2,76.5-20.1c33-16.3,59.4-40.2,79.7-70.8
		c8.2-12.4,8-12.6,0.3-25.5c-18-30.1-43.6-50.4-77.6-59.8c-12-3.3-22.8-3.7-34,4.5c-15,11-32.8,15.5-51.4,16.3
		c-24.4,1.1-46.8-5.2-66.9-19.4c-5-3.5-10.3-5.3-16.4-4c-3.1,0.7-6.2,1.1-9.3,1.9c-38.8,9.7-66.9,32.7-84.8,68.4
		c-2.4,4.9-2.1,8.9,0.7,13.5c19.7,31.1,45.5,55.5,78,72.6c20.4,10.8,42.1,17.8,65.1,20.7C233.4,449.6,239.6,450.2,245.7,450.9z
		 M255.6,263.9c55.4,0,101.1-45.8,101-101.1c-0.1-55.5-45.8-101.1-101.2-100.9c-55.4,0.2-100.7,45.5-100.9,100.9
		C154.4,218,200.3,263.9,255.6,263.9z"/>
	<path d="M245.7,450.9c-6.1-0.7-12.3-1.3-18.4-2.1c-22.9-2.9-44.7-9.9-65.1-20.7c-32.5-17.2-58.4-41.6-78-72.6
		c-2.9-4.5-3.2-8.6-0.7-13.5c17.8-35.8,46-58.7,84.8-68.4c3.1-0.8,6.2-1.2,9.3-1.9c6.1-1.3,11.4,0.4,16.4,4
		c20,14.1,42.4,20.5,66.9,19.4c18.6-0.8,36.4-5.3,51.4-16.3c11.2-8.2,22-7.9,34-4.5c34,9.5,59.6,29.7,77.6,59.8
		c7.7,12.8,7.9,13.1-0.3,25.5c-20.3,30.6-46.6,54.5-79.7,70.8c-24.1,11.9-49.6,18.6-76.5,20.1c-0.9,0-1.7,0.3-2.6,0.5
		C258.4,450.9,252.1,450.9,245.7,450.9z"/>
	<path d="M255.6,263.9c-55.4,0-101.2-45.9-101-101.2c0.2-55.4,45.5-100.7,100.9-100.9c55.4-0.2,101.1,45.5,101.2,100.9
		C356.7,218.2,311,263.9,255.6,263.9z"/>
</g>
</svg>
