<?xml version="1.0" encoding="utf-8"?>
<svg version="1.1" id="Layer_1" xmlns="http://www.w3.org/2000/svg" xmlns:xlink="http://www.w3.org/1999/xlink" x="0px" y="0px"
	 viewBox="0 0 181 181" style="enable-background:new 0 0 181 181;" xml:space="preserve">
<style type="text/css">
	.st0{fill:#1B618E;}
	.st1{fill:#EA468F;}
</style>
<path class="st0" d="M151.3,33.8c-8.1,7.2-16.1,14.3-24.5,21.7c-12.3-11-26.9-12.5-42.2-12.1c-11.2,0.3-22.3,0-33.5,0.1
	c-2.1,0-4.2,0.3-7,0.5v119C20.9,147.9,5.6,121.8,5.6,92.1c0-35.1,21.3-65.1,51.7-78c0.2-0.1,0.4-0.2,0.5-0.2c2.7-1,5.4-2,8.3-2.8
	c5.1-1.5,10.1-2.5,15-3.1c17-2.1,33,0.9,47.7,8.7c0.2,0.1,0.3,0.2,0.5,0.2c7.1,3.8,13.9,8.8,20.3,14.9
	C150.1,32.2,150.5,32.7,151.3,33.8z"/>
<path class="st1" d="M153.4,150.8c-6.5,4.9-12.1,9.8-18.3,13.7c-15.2,9.4-31.7,13.2-49.1,12.1c-0.6,0-1.2-0.1-1.8-0.1
	c-0.6,0-1.2-0.1-1.9-0.2c-0.5-0.1-1-0.1-1.6-0.2c-0.5-0.1-1-0.1-1.6-0.2c-3.5-0.4-4.3-1.9-4.2-5.2c0.2-8.8,0.3-17.7,0-26.5
	c-0.2-4.3,1.5-5.4,5.5-5.2c5,0.3,10,0,15,0.1c10.6,0.1,20.3-2.9,29-9.1c2-1.5,3.6-2.4,6-0.2c6.9,6.4,13.9,12.5,22,19.8
	C152.6,150.1,153,150.5,153.4,150.8z"/>
<path class="st0" d="M113.5,92.9c-0.6,8.8-7.3,15.4-16.2,15.7c-3,0.1-6,0-9,0c-1.7,0-3.3,0-5,0c-8,0-8,0-8-7.7
	c0-7.2,0.2-14.3-0.1-21.5c-0.1-4.4,1.1-6.5,5.9-6.1c6.1,0.5,12.3,0.1,18.4,0.9C108.8,75.4,114.3,83.2,113.5,92.9z"/>
</svg>
