<svg version="1.1" id="Layer_1" xmlns="http://www.w3.org/2000/svg" x="0" y="0" width="64.1" height="64.1" xml:space="preserve"><style>.st0{fill:#5b7a9a}.st1{fill:#ed258b}</style><path class="st0" d="M46.7 29.3c.1-.5.2-.8.1-1l-1.2-3c-.2-.6-.6-.9-1.3-.6-.3.1-.6 0-1.1 0 .2.4.3.6.4.9 0 .3 0 .8-.1.9-.3.2-.8.3-1.1.1-.4-.2-.6-.6-.9-1-.1-.2-.3-.3-.6-.8 0 1.2-.1 2.1-1.2 2.3-1.1.2-2-.2-2.1-1-.1-.8-1-1.7.5-2.3-.3-.2-.5-.3-.7-.5-.3-.3-.7-.5-.7-.9 0-.2.4-.6.8-.7.7-.3 1.2-.6 1.6-1.4.4-.9 1.3-.7 2.2-.4-.4-1.1-2-1.2-1.8-2.8.9.6 1.8.9 2.5 1.6 5.5 4.9 8.1 12.5 4.8 19.3-3 6.2-9.8 10.4-17.9 8.8C23 45.7 17 40.1 16.2 32.9c-.5-4.6.7-8.7 4.1-12 1.3-1.2 3-2 4.5-2.8.4-.2 1 0 1.5.1-.1.5-.2 1.1-.4 1.6 0 .1-.2.3-.3.3-1.4.6-2 1.9-2.8 3.3.8.4 1.6 1 2.5 1.3.3.1.8-.2 1.2-.3.4 0 .9-.1 1.1.1.5.5.9.3 1.2-.1 1.1-1.5 2.3-.5 3.5-.3.6.1.8.8.4 1.4-.8 1.3-1.6 2.5-2.4 3.8-.1.2-.2.4-.2.6-.3 2-1.8 3.1-3.8 2.8-.5-.1-1-.1-1.5 0s-1 .2-1.5.4c.5 1.7 1.5 1.8 3.1 1.4 1.3-.4 2.5-.7 3.7.2.2.2.6.2.9.1.4 0 .8-.1 1.2-.1 1.7 0 2.4 1 2.2 2.6 0 .2 0 .5.1.6.5.8.5 1.7-.2 2.3-.2.1-.3.3-.5.4-1 .6-1.6 1.2-1 2.6.3.8.1 1.8.1 2.8H34c3.5-.5 6.5-1.9 9.1-4.4.4-.4.5-.9 0-1.3-.8-.7-1.3-1.5-1.3-2.7 0-.4-.9-.9-1.4-1.2-.6-.3-1.3-.3-2-.4-1.7-.4-2.6-1.5-2.4-3.2.1-1.1.5-2.3.9-3.4.6-1.4 2.1-1.7 3.9-1.1.5.2 1.2.2 1.8 0 1.2-.3 2.7-.7 4.1 1zm-23.4 6.4c.1.1.2.1.3.2 1.2.7 1.8 1.7 1.6 3.1-.1.9.4 1.6 1.1 2.1.5.3 1 .5 1.4.9.6.5 1.1 1 1.5 1.6.7.8 1.3 1.7 2 2.5.2-1.2.7-2.2.2-3.3-.4-.8-.2-1.7.8-2.2.4-.2.6-.5 1-.7.6-.4.7-.9.1-1.4-.2-.2-.4-.6-.3-.9.4-1.7.2-2-1.6-1.8-.7.1-1.5.1-2-.2-.8-.4-1.5-.3-2.3-.2-1 .2-2.1.3-3.2.4-.1-.1-.3-.1-.4-.2-.1-.1-.3-.2-.4-.3-.4-.6-.9-1.2-1.2-1.8-.1-.3-.2-.8 0-1 .1-.2.6-.2.9-.2.3 0 .7.2.9 0 .9-.8 1.9-.3 2.8-.2 1.4.1 2.3-.6 2.5-2 0-.3.1-.7.3-1 .7-1.3 1.5-2.5 2.2-3.8-.8-.5-1.6-.7-2.3.1-.6.6-1.2.8-2 .2-.1-.1-.4-.1-.5-.1-1.9.8-3.1-.4-4.5-1.4-.2-.2-.3-.9-.2-1.2.5-1.3 1.1-2.4 2.6-2.9.4-.1.7-.7 1.2-1.1-.4-.1-.4-.1-.5-.1C20.6 20.6 17.8 24 17 29c-.1.9.1 1.2.9 1.5 1 .3 1.8 1 2.3 2 .6 1.3 1.6 2.3 2.8 3 .1 0 .2.1.3.2zm23.6-5.5c-.4-.2-.9-.2-1.1-.4-.9-1.2-2-.9-3.2-.5-.9.3-1.6.4-2.6.1-1.5-.5-2.9-.4-3.1 1.9 0 .5-.2.9-.3 1.3-.4 1.8.1 2.5 1.9 2.9.9.2 1.9.4 2.7.8.7.3 1.2.8 1.1 1.5-.1 1.2.6 1.9 1.5 2.6 2.5-3.1 3.8-6.4 3.1-10.2zm-29.9.9c-.3 8.4 8.1 15 13.1 14.8-.5-.5-1-.9-1.3-1.5-.5-.9-1.2-1.6-2.2-2.1-1.4-.7-2.3-1.9-2.2-3.5 0-.9-.3-1.5-1-2-.4-.3-.8-.5-1.1-.8-1-1-2.1-1.9-2.8-3-.7-1.1-1.4-1.6-2.5-1.9zm27.9-7.3c-.5-.7-.9-1.3-1.3-1.9-.4-.7-.9-.9-1.6-.5-.6.3-1.1.3-1.5-.4-.1-.1-.6-.1-.8 0-.6.5-1.1 1.2-1.7 1.7 1 .9 1.1 1.8 0 2.4v.3c0 1 .8.9 1.4.8.7-.1.3-.7.2-1.1-.1-.5 0-.7.5-.9 1.2-.4 1.4-.3 2.2 1.2-.4-2.4 1.3-1.5 2.6-1.6zm-3.5-3.9c-.1.1-.1.2-.2.3.2.1.4.3.7.4.1-.1.1-.2.2-.2-.3-.2-.5-.3-.7-.5zM7.9 25.1c.1-.2.1-.2.1-.3.2-.6.4-1.4 1.1-1.2.5.1 1.2.7 1.4 1.3.4.9.5 1.9.6 2.9.1.9 0 1.8 0 3 .3-.2.4-.3.5-.4.9-.7 1.6-.5 1.9.6.1.5.2 1.1.1 1.6-.3 1.8-.7 3.6-1 5.5 0 .3-.2.5-.2.6 1.8 1.7 3.5 3.3 5.2 5 4.3 4.1 6.5 9.3 7.8 14.9.3 1.4.1 2.9.1 4.4 0 .2-.3.5-.4.7-.1 0-.2-.1-.3-.1-.1-.8-.2-1.7-.2-2.5.1-2.6-.8-4.9-1.7-7.2-2.3-5.8-6.2-10.3-11-14.1-1.3-1-2.3-1.3-3.7-1 .7.8 1.3 1.6 2 2.4 1.9 2.3 3.7 4.7 4.7 7.6.2.6.3 1.1-.3 1.5-.2-.2-.3-.4-.4-.6-1.3-3.4-3.5-6.3-5.8-9.1-.3-.4-.6-.7-.9-1.1-.7-1-.4-1.7.7-2.1.2-.1.3-.1.6-.2-.3-1.7-.5-3.4-.8-5-.4-2.5-.9-5-1.3-7.5 0-.2 0-.3-.1-.4-.4-.4-.7-.8-1.1-1.2-.1.4-.4.9-.4 1.3l.3 14.9c.1 2.2.6 4.2 2.2 5.8 2.5 2.5 5 5.1 7.4 7.6l3.7 3.7c.7.7 1 1.5.8 2.5-.3 1.2-.4 2.5-.6 3.7-.1.5-.5.9-.8 1.3-.1 0-.2-.1-.3-.1v-.9c.2-1.1.4-2.2.6-3.4.2-1.1-.1-2-.9-2.7l-7.8-7.5c-.6-.5-1.1-1.1-1.6-1.6-2.2-2.4-3.8-5-3.8-8.4.1-4.5-.1-8.9-.2-13.4 0-.8-.1-1.6 0-2.4.2-1.3 1.2-1.6 2.1-.8.4.4.7.9 1 1.5.4 0 .5.4.7.9zm1.5-.8c-1.3 2-.6 11 .9 13.3.1-.3.3-.5.3-.8-.1-3.7-.3-7.5-.5-11.2 0-.4-.4-.8-.7-1.3zm2.5 13h.1c.3-1.8.6-3.6.8-5.4 0-.3-.2-.7-.4-1-.3.3-.8.6-.8 1l.3 5.4z"/><path class="st0" d="M37.8 63.6c-.1-.3-.3-.6-.4-.8-.2-2.8.1-5.6 1.2-8.2 2.2-5.5 5.6-10.1 10.1-13.9.7-.6 1.3-1.2 1.8-1.7-.2-.7-.3-1.3-.4-1.8-.3-1.3-.5-2.7-.7-4-.1-.5-.2-1-.1-1.5.1-.6.4-1.3.8-1.6.3-.2 1 .2 1.7.3 0-.7-.1-1.6 0-2.4.1-1 .2-2 .5-2.9.2-.7.6-1.6 1.4-1.5.5.1 1 .8 1.5 1.3.1-.2.2-.6.3-.9.2-.4.3-.9.6-1.1.5-.4 1.2-.8 1.8-.7.8.1.9.9.9 1.6-.1 5.9-.2 11.8-.5 17.7 0 1-.5 2-1 2.8-1.2 1.7-2.5 3.3-3.9 4.8-2.6 2.6-5.2 5.2-7.9 7.7-.9.8-1.2 1.8-1 2.9.2 1.1.4 2.1.6 3.2.1.3.1.6.1.9-.1.1-.2.1-.3.2-.3-.4-.7-.8-.8-1.2-.3-1.5-.6-3-.7-4.5 0-.6.5-1.4.9-1.9 1.8-1.8 3.7-3.6 5.5-5.4 1.9-1.9 3.7-3.9 5.6-5.8 1.5-1.6 2.1-3.6 2.2-5.7l.3-15.1v-.6c-.1-.6-.5-.8-.9-.3-.3.4-.6.9-.7 1.4-.7 3.6-1.3 7.3-1.9 10.9-.1.5-.2 1.1-.3 1.6l.9.3c.8.4 1.1 1 .6 1.8-.3.5-.7.9-1.1 1.4-2.3 2.8-4.5 5.6-5.7 9-.1.2-.2.4-.4.6-.7-.3-.6-.8-.4-1.4 1-2.8 2.8-5.2 4.6-7.5.7-.8 1.3-1.6 2-2.4 0-.1-.1-.2-.1-.3-.5 0-1.1 0-1.6.1-.7.2-1.4.6-1.9 1-2 1.8-4.1 3.6-6 5.7-3.2 3.5-5.1 7.9-6.5 12.3-.5 1.6-.3 3.4-.5 5.1 0 .2 0 .4-.1.6.1-.2 0-.1-.1-.1zm14.8-26.1h.2c1-3.1 2.3-11.2.9-13-.8.3-.9 1-.9 1.6-.2 3.5-.3 6.9-.4 10.4 0 .4.2.7.2 1zM51 37h.2c.1-1.7.2-3.4.2-5.1 0-.1 0-.3-.1-.4-.2-.2-.5-.3-.7-.5-.1.2-.4.5-.4.7.2 1.8.5 3.5.8 5.3z"/><path class="st1" d="M32.1 17.9c.1-.5.2-1 .4-1.5 1-3.8 3.4-6 7.2-6.4 1-.1 1.2 0 1 1-.2 1.1-.4 2.3-.8 3.3-.9 2.5-2.8 3.8-5.4 4.1-.3 0-.7.1-1 .1-.9.1-1.2.6-1.3 1.4V22c-.3 0-.6.1-1 .1 0-1.1-.2-2.4-.2-3.6 0-1.2-.6-2.1-1.6-2.7-1-.5-2-1.1-3-1.7-3.7-2.4-5-6.3-3.4-10.5.4-.9.8-1.8 1.3-2.6.2-.3.7-.6 1-.5 5.7.4 9.5 6.5 7.4 11.8-1.1 2.9-1.1 2.9-.6 5.6zm1.9-2.3c1.5-1.4 2.9-2.8 4.4-4.2-2.2.6-3.8 1.9-4.6 4.1-.1.1-.1.2-.2.2.1 0 .3-.1.4-.1zm-3.5-.4c-1.2-4.8-2.5-9.4-5.6-13.4-.3.6-.5 1-.8 1.5-1.8 3.9-.7 7.8 3 10 1.1.7 2.2 1.3 3.4 1.9zm.6-1.7C33.6 8.4 30.8 2 26 1.8c2.8 3.4 3.9 7.5 5.1 11.7zm8.6-2.1c-2.2 2.1-4.2 4.1-6.2 6 3.8 0 5.8-2 6.2-6z"/><path class="st0" d="M23 35.5c-1.2-.7-2.2-1.7-2.8-3-.5-1-1.3-1.7-2.3-2-.8-.3-1-.6-.9-1.5.8-5 3.6-8.3 8.2-10.2 0 0 .1 0 .5.1-.5.4-.8 1-1.2 1.1-1.4.5-2.1 1.6-2.6 2.9-.1.3 0 1 .2 1.2 1.3 1 2.6 2.2 4.5 1.4.1-.1.4 0 .5.1.7.6 1.4.4 2-.2.8-.8 1.5-.7 2.3-.1-.7 1.3-1.5 2.5-2.2 3.8-.2.3-.2.6-.3 1-.2 1.4-1.1 2.1-2.5 2-.9-.1-1.9-.6-2.8.2-.2.1-.6-.1-.9 0-.3 0-.8 0-.9.2-.1.3-.1.7 0 1 .3.6.8 1.2 1.2 1.8v.2zM46.9 30.2c.7 3.8-.6 7.1-2.9 10.2-.9-.8-1.6-1.4-1.5-2.6.1-.8-.5-1.3-1.1-1.5-.9-.3-1.8-.6-2.7-.8-1.9-.4-2.3-1.1-1.9-2.9.1-.4.2-.9.3-1.3.2-2.3 1.6-2.4 3.1-1.9.9.3 1.7.2 2.6-.1 1.1-.4 2.3-.7 3.2.5 0 .2.5.3.9.4zM23.8 35.7c1.1-.1 2.1-.2 3.2-.4.8-.1 1.5-.2 2.3.2.6.3 1.4.3 2 .2 1.7-.1 2 .2 1.6 1.8-.1.2.1.7.3.9.6.6.4 1-.1 1.4-.3.2-.6.5-1 .7-1 .5-1.2 1.4-.8 2.2.6 1.1 0 2.1-.2 3.3-.7-.8-1.3-1.7-2-2.5-.5-.6-1-1.1-1.5-1.6-.4-.4-1-.6-1.4-.9-.7-.5-1.2-1.2-1.1-2.1.2-1.5-.4-2.4-1.6-3.1.2 0 .3-.1.3-.1zM44.9 23.8c-1.3.1-3-.7-2.5 1.7-.8-1.6-1-1.7-2.2-1.2-.5.2-.6.4-.5.9.1.4.5 1-.2 1.1-.5.1-1.4.2-1.4-.8v-.3c1.1-.6 1-1.5 0-2.4.6-.6 1.1-1.2 1.7-1.7.2-.1.7-.1.8 0 .4.7.9.7 1.5.4.7-.3 1.2-.2 1.6.5.2.5.7 1 1.2 1.8zM41.4 19.9c.2.1.4.3.6.4-.1.1-.1.2-.2.2-.2-.1-.4-.3-.7-.4.1 0 .2-.1.3-.2z"/><path class="st0" d="M23 35.5v-.3c.1.1.3.2.4.3 0 .1-.1.1-.1.2-.1-.1-.2-.2-.3-.2z"/><path class="st0" d="M23.4 35.5c.1.1.3.1.4.2l-.2.2c-.1-.1-.2-.1-.3-.2 0-.1.1-.1.1-.2zM9.4 24.3c.3.5.7.9.7 1.4.2 3.7.3 7.4.5 11.2 0 .2-.2.5-.3.8-1.5-2.4-2.2-11.4-.9-13.4zM11.9 37.3c-.1-1.8-.2-3.6-.2-5.4 0-.3.5-.6.8-1 .1.3.4.7.4 1-.2 1.8-.5 3.6-.8 5.4h-.2zM52.6 37.5c-.1-.3-.2-.7-.2-1 .1-3.5.3-7 .4-10.4 0-.7.1-1.4.9-1.6 1.5 1.8.1 9.9-.9 13h-.2zM51 37c-.3-1.8-.5-3.6-.8-5.3 0-.2.2-.5.4-.7.2.2.5.3.7.5.1.1.1.3.1.4-.1 1.7-.1 3.4-.2 5.1H51z"/><path class="st1" d="M30.5 15.2c-1.2-.7-2.3-1.2-3.3-1.9-3.7-2.3-4.8-6.1-3-10 .2-.5.5-.9.8-1.5 3 4.1 4.3 8.7 5.5 13.4zM31.1 13.5C29.9 9.3 28.7 5.3 26 1.8c4.8.1 7.6 6.6 5.1 11.7zM39.7 11.4c-.4 4-2.4 6-6.2 6 2-1.9 4-3.9 6.2-6zM33.8 15.5c.8-2.1 2.3-3.5 4.6-4.1-1.5 1.4-2.9 2.8-4.4 4.2-.1 0-.1-.1-.2-.1z"/><path class="st1" d="M34 15.6c-.1 0-.2.1-.3.1.1-.1.1-.2.2-.2 0 0 0 .1.1.1z"/></svg>