<svg xmlns="http://www.w3.org/2000/svg" width="64.1" height="64.1"><g fill="#5b7a9a"><path d="M46.7 29.3c.1-.5.2-.8.1-1l-1.2-3c-.2-.6-.6-.9-1.3-.6h-1.1l.4.9-.1.9c-.3.2-.8.3-1.1.1-.4-.2-.6-.6-.9-1l-.6-.8c0 1.2-.1 2.1-1.2 2.3s-2-.2-2.1-1-1-1.7.5-2.3l-.7-.5c-.3-.3-.7-.5-.7-.9 0-.2.4-.6.8-.7.7-.3 1.2-.6 1.6-1.4.4-.9 1.3-.7 2.2-.4-.4-1.1-2-1.2-1.8-2.8.9.6 1.8.9 2.5 1.6 5.5 4.9 8.1 12.5 4.8 19.3a16 16 0 0 1-17.9 8.8 16.5 16.5 0 0 1-12.7-13.9c-.5-4.6.7-8.7 4.1-12 1.3-1.2 3-2 4.5-2.8.4-.2 1 0 1.5.1l-.4 1.6-.3.3c-1.4.6-2 1.9-2.8 3.3.8.4 1.6 1 2.5 1.3.3.1.8-.2 1.2-.3.4 0 .9-.1 1.1.1.5.5.9.3 1.2-.1 1.1-1.5 2.3-.5 3.5-.3.6.1.8.8.4 1.4l-2.4 3.8-.2.6c-.3 2-1.8 3.1-3.8 2.8h-1.5l-1.5.4c.5 1.7 1.5 1.8 3.1 1.4 1.3-.4 2.5-.7 3.7.2.2.2.6.2.9.1l1.2-.1c1.7 0 2.4 1 2.2 2.6l.1.6c.5.8.5 1.7-.2 2.3l-.5.4c-1 .6-1.6 1.2-1 2.6.3.8.1 1.8.1 2.8H34a16 16 0 0 0 9.1-4.4c.4-.4.5-.9 0-1.3a3.4 3.4 0 0 1-1.3-2.7c0-.4-.9-.9-1.4-1.2-.6-.3-1.3-.3-2-.4-1.7-.4-2.6-1.5-2.4-3.2.1-1.1.5-2.3.9-3.4.6-1.4 2.1-1.7 3.9-1.1.5.2 1.2.2 1.8 0 1.2-.3 2.7-.7 4.1 1zm-23.4 6.4.3.2c1.2.7 1.8 1.7 1.6 3.1-.1.9.4 1.6 1.1 2.1.5.3 1 .5 1.4.9.6.5 1.1 1 1.5 1.6l2 2.5c.2-1.2.7-2.2.2-3.3-.4-.8-.2-1.7.8-2.2l1-.7c.6-.4.7-.9.1-1.4-.2-.2-.4-.6-.3-.9.4-1.7.2-2-1.6-1.8-.7.1-1.5.1-2-.2-.8-.4-1.5-.3-2.3-.2l-3.2.4-.4-.2-.4-.3-1.2-1.8c-.1-.3-.2-.8 0-1 .1-.2.6-.2.9-.2s.7.2.9 0c.9-.8 1.9-.3 2.8-.2 1.4.1 2.3-.6 2.5-2a2 2 0 0 1 .3-1l2.2-3.8c-.8-.5-1.6-.7-2.3.1-.6.6-1.2.8-2 .2l-.5-.1c-1.9.8-3.1-.4-4.5-1.4-.2-.2-.3-.9-.2-1.2.5-1.3 1.1-2.4 2.6-2.9.4-.1.7-.7 1.2-1.1l-.5-.1A12.4 12.4 0 0 0 17 29c-.1.9.1 1.2.9 1.5 1 .3 1.8 1 2.3 2a6.8 6.8 0 0 0 2.8 3l.3.2zm23.6-5.5c-.4-.2-.9-.2-1.1-.4-.9-1.2-2-.9-3.2-.5-.9.3-1.6.4-2.6.1-1.5-.5-2.9-.4-3.1 1.9 0 .5-.2.9-.3 1.3-.4 1.8.1 2.5 1.9 2.9.9.2 1.9.4 2.7.8.7.3 1.2.8 1.1 1.5-.1 1.2.6 1.9 1.5 2.6 2.5-3.1 3.8-6.4 3.1-10.2zm-29.9.9c-.3 8.4 8.1 15 13.1 14.8-.5-.5-1-.9-1.3-1.5a5 5 0 0 0-2.2-2.1c-1.4-.7-2.3-1.9-2.2-3.5 0-.9-.3-1.5-1-2l-1.1-.8c-1-1-2.1-1.9-2.8-3s-1.4-1.6-2.5-1.9zm27.9-7.3-1.3-1.9c-.4-.7-.9-.9-1.6-.5-.6.3-1.1.3-1.5-.4-.1-.1-.6-.1-.8 0L38 22.7c1 .9 1.1 1.8 0 2.4v.3c0 1 .8.9 1.4.8.7-.1.3-.7.2-1.1-.1-.5 0-.7.5-.9 1.2-.4 1.4-.3 2.2 1.2-.4-2.4 1.3-1.5 2.6-1.6zm-3.5-3.9-.2.3.7.4.2-.2-.7-.5zM7.9 25.1l.1-.3c.2-.6.4-1.4 1.1-1.2.5.1 1.2.7 1.4 1.3.4.9.5 1.9.6 2.9v3l.5-.4c.9-.7 1.6-.5 1.9.6.1.5.2 1.1.1 1.6l-1 5.5-.2.6 5.2 5c4.3 4.1 6.5 9.3 7.8 14.9.3 1.4.1 2.9.1 4.4l-.4.7-.3-.1a21 21 0 0 1-.2-2.5c.1-2.6-.8-4.9-1.7-7.2a33.9 33.9 0 0 0-11-14.1c-1.3-1-2.3-1.3-3.7-1l2 2.4c1.9 2.3 3.7 4.7 4.7 7.6.2.6.3 1.1-.3 1.5l-.4-.6a33.5 33.5 0 0 0-5.8-9.1l-.9-1.1c-.7-1-.4-1.7.7-2.1l.6-.2-.8-5-1.3-7.5-.1-.4-1.1-1.2c-.1.4-.4.9-.4 1.3l.3 14.9c.1 2.2.6 4.2 2.2 5.8l7.4 7.6 3.7 3.7c.7.7 1 1.5.8 2.5-.3 1.2-.4 2.5-.6 3.7-.1.5-.5.9-.8 1.3l-.3-.1v-.9l.6-3.4c.2-1.1-.1-2-.9-2.7l-7.8-7.5-1.6-1.6c-2.2-2.4-3.8-5-3.8-8.4.1-4.5-.1-8.9-.2-13.4v-2.4c.2-1.3 1.2-1.6 2.1-.8.4.4.7.9 1 1.5.4 0 .5.4.7.9zm1.5-.8c-1.3 2-.6 11 .9 13.3.1-.3.3-.5.3-.8l-.5-11.2c0-.4-.4-.8-.7-1.3zm2.5 13h.1l.8-5.4c0-.3-.2-.7-.4-1-.3.3-.8.6-.8 1l.3 5.4z"/><path d="m37.8 63.6-.4-.8c-.2-2.8.1-5.6 1.2-8.2a35 35 0 0 1 10.1-13.9l1.8-1.7-.4-1.8-.7-4c-.1-.5-.2-1-.1-1.5.1-.6.4-1.3.8-1.6.3-.2 1 .2 1.7.3V28c.1-1 .2-2 .5-2.9.2-.7.6-1.6 1.4-1.5.5.1 1 .8 1.5 1.3l.3-.9c.2-.4.3-.9.6-1.1.5-.4 1.2-.8 1.8-.7.8.1.9.9.9 1.6l-.5 17.7c0 1-.5 2-1 2.8a45.4 45.4 0 0 1-3.9 4.8l-7.9 7.7a3 3 0 0 0-1 2.9l.6 3.2.1.9-.3.2c-.3-.4-.7-.8-.8-1.2a35 35 0 0 1-.7-4.5c0-.6.5-1.4.9-1.9l5.5-5.4 5.6-5.8a8.7 8.7 0 0 0 2.2-5.7l.3-15.1v-.6c-.1-.6-.5-.8-.9-.3-.3.4-.6.9-.7 1.4l-1.9 10.9-.3 1.6.9.3c.8.4 1.1 1 .6 1.8l-1.1 1.4a30.5 30.5 0 0 0-6.1 9.6c-.7-.3-.6-.8-.4-1.4 1-2.8 2.8-5.2 4.6-7.5l2-2.4-.1-.3-1.6.1c-.7.2-1.4.6-1.9 1-2 1.8-4.1 3.6-6 5.7A32.4 32.4 0 0 0 38.5 58c-.5 1.6-.3 3.4-.5 5.1l-.1.6c.1-.2 0-.1-.1-.1zm14.8-26.1h.2c1-3.1 2.3-11.2.9-13-.8.3-.9 1-.9 1.6l-.4 10.4.2 1zM51 37h.2l.2-5.1-.1-.4-.7-.5-.4.7.8 5.3z"/></g><path d="m32.1 17.9.4-1.5c1-3.8 3.4-6 7.2-6.4 1-.1 1.2 0 1 1-.2 1.1-.4 2.3-.8 3.3-.9 2.5-2.8 3.8-5.4 4.1l-1 .1c-.9.1-1.2.6-1.3 1.4V22l-1 .1-.2-3.6a3 3 0 0 0-1.6-2.7l-3-1.7A8.3 8.3 0 0 1 23 3.6L24.3 1c.2-.3.7-.6 1-.5 5.7.4 9.5 6.5 7.4 11.8-1.1 2.9-1.1 2.9-.6 5.6zm1.9-2.3 4.4-4.2a6.4 6.4 0 0 0-4.6 4.1l-.2.2.4-.1zm-3.5-.4a34.5 34.5 0 0 0-5.6-13.4l-.8 1.5c-1.8 3.9-.7 7.8 3 10l3.4 1.9zm.6-1.7C33.6 8.4 30.8 2 26 1.8c2.8 3.4 3.9 7.5 5.1 11.7zm8.6-2.1-6.2 6c3.8 0 5.8-2 6.2-6z" fill="#ed258b"/><g fill="#5b7a9a"><path d="M23 35.5a6.8 6.8 0 0 1-2.8-3c-.5-1-1.3-1.7-2.3-2-.8-.3-1-.6-.9-1.5.8-5 3.6-8.3 8.2-10.2l.5.1c-.5.4-.8 1-1.2 1.1-1.4.5-2.1 1.6-2.6 2.9-.1.3 0 1 .2 1.2 1.3 1 2.6 2.2 4.5 1.4.1-.1.4 0 .5.1.7.6 1.4.4 2-.2.8-.8 1.5-.7 2.3-.1l-2.2 3.8c-.2.3-.2.6-.3 1-.2 1.4-1.1 2.1-2.5 2-.9-.1-1.9-.6-2.8.2h-.9c-.3 0-.8 0-.9.2v1l1.2 1.8v.2zm23.9-5.3c.7 3.8-.6 7.1-2.9 10.2-.9-.8-1.6-1.4-1.5-2.6.1-.8-.5-1.3-1.1-1.5l-2.7-.8c-1.9-.4-2.3-1.1-1.9-2.9l.3-1.3c.2-2.3 1.6-2.4 3.1-1.9.9.3 1.7.2 2.6-.1 1.1-.4 2.3-.7 3.2.5 0 .2.5.3.9.4zm-23.1 5.5a35 35 0 0 0 3.2-.4c.8-.1 1.5-.2 2.3.2.6.3 1.4.3 2 .2 1.7-.1 2 .2 1.6 1.8-.1.2.1.7.3.9.6.6.4 1-.1 1.4l-1 .7c-1 .5-1.2 1.4-.8 2.2.6 1.1 0 2.1-.2 3.3l-2-2.5-1.5-1.6c-.4-.4-1-.6-1.4-.9-.7-.5-1.2-1.2-1.1-2.1.2-1.5-.4-2.4-1.6-3.1l.3-.1zm21.1-11.9c-1.3.1-3-.7-2.5 1.7-.8-1.6-1-1.7-2.2-1.2-.5.2-.6.4-.5.9.1.4.5 1-.2 1.1-.5.1-1.4.2-1.4-.8v-.3c1.1-.6 1-1.5 0-2.4l1.7-1.7c.2-.1.7-.1.8 0 .4.7.9.7 1.5.4.7-.3 1.2-.2 1.6.5.2.5.7 1 1.2 1.8zm-3.5-3.9.6.4-.2.2-.7-.4.3-.2z"/><path d="M23 35.5v-.3l.4.3-.1.2-.3-.2zM23.4 35.5l.4.2-.2.2-.3-.2.1-.2zm-14-11.2c.3.5.7.9.7 1.4l.5 11.2-.3.8c-1.5-2.4-2.2-11.4-.9-13.4zm2.5 13-.2-5.4c0-.3.5-.6.8-1 .1.3.4.7.4 1l-.8 5.4h-.2zm40.7.2-.2-1 .4-10.4c0-.7.1-1.4.9-1.6 1.5 1.8.1 9.9-.9 13h-.2zM51 37l-.8-5.3.4-.7.7.5.1.4-.2 5.1H51z"/></g><g fill="#ed258b"><path d="m30.5 15.2-3.3-1.9a7.4 7.4 0 0 1-3-10l.8-1.5c3 4.1 4.3 8.7 5.5 13.4zm.6-1.7A33.1 33.1 0 0 0 26 1.8c4.8.1 7.6 6.6 5.1 11.7zm8.6-2.1c-.4 4-2.4 6-6.2 6l6.2-6zm-5.9 4.1a6.4 6.4 0 0 1 4.6-4.1L34 15.6l-.2-.1z"/><path d="m34 15.6-.3.1.2-.2.1.1z"/></g></svg>