<?xml version="1.0" encoding="utf-8"?>
<svg version="1.1" id="Layer_1" xmlns="http://www.w3.org/2000/svg" xmlns:xlink="http://www.w3.org/1999/xlink" x="0px" y="0px"
	 width="64.1px" height="64.1px" viewBox="0 0 64.1 64.1" style="enable-background:new 0 0 64.1 64.1;" xml:space="preserve">
<style type="text/css">
	.st0{fill:#5B7A9A;}
	.st1{fill:#ED258B;}
	.st2{display:none;fill:#5B7A9A;}
</style>
<g>
	<path class="st0" d="M46.7,29.3c0.1-0.5,0.2-0.8,0.1-1c-0.4-1-0.8-2-1.2-3c-0.2-0.6-0.6-0.9-1.3-0.6c-0.3,0.1-0.6,0-1.1,0
		c0.2,0.4,0.3,0.6,0.4,0.9c0,0.3,0,0.8-0.1,0.9c-0.3,0.2-0.8,0.3-1.1,0.1c-0.4-0.2-0.6-0.6-0.9-1c-0.1-0.2-0.3-0.3-0.6-0.8
		c0,1.2-0.1,2.1-1.2,2.3c-1.1,0.2-2-0.2-2.1-1c-0.1-0.8-1-1.7,0.5-2.3c-0.3-0.2-0.5-0.3-0.7-0.5c-0.3-0.3-0.7-0.5-0.7-0.9
		c0-0.2,0.4-0.6,0.8-0.7c0.7-0.3,1.2-0.6,1.6-1.4c0.4-0.9,1.3-0.7,2.2-0.4c-0.4-1.1-2-1.2-1.8-2.8c0.9,0.6,1.8,0.9,2.5,1.6
		c5.5,4.9,8.1,12.5,4.8,19.3c-3,6.2-9.8,10.4-17.9,8.8c-5.9-1.1-11.9-6.7-12.7-13.9c-0.5-4.6,0.7-8.7,4.1-12c1.3-1.2,3-2,4.5-2.8
		c0.4-0.2,1,0,1.5,0.1c-0.1,0.5-0.2,1.1-0.4,1.6c0,0.1-0.2,0.3-0.3,0.3c-1.4,0.6-2,1.9-2.8,3.3c0.8,0.4,1.6,1,2.5,1.3
		c0.3,0.1,0.8-0.2,1.2-0.3c0.4,0,0.9-0.1,1.1,0.1c0.5,0.5,0.9,0.3,1.2-0.1c1.1-1.5,2.3-0.5,3.5-0.3c0.6,0.1,0.8,0.8,0.4,1.4
		c-0.8,1.3-1.6,2.5-2.4,3.8c-0.1,0.2-0.2,0.4-0.2,0.6c-0.3,2-1.8,3.1-3.8,2.8c-0.5-0.1-1-0.1-1.5,0c-0.5,0.1-1,0.2-1.5,0.4
		c0.5,1.7,1.5,1.8,3.1,1.4c1.3-0.4,2.5-0.7,3.7,0.2c0.2,0.2,0.6,0.2,0.9,0.1c0.4,0,0.8-0.1,1.2-0.1c1.7,0,2.4,1,2.2,2.6
		c0,0.2,0,0.5,0.1,0.6c0.5,0.8,0.5,1.7-0.2,2.3c-0.2,0.1-0.3,0.3-0.5,0.4c-1,0.6-1.6,1.2-1,2.6c0.3,0.8,0.1,1.8,0.1,2.8
		c0.3,0,0.7,0,1.1,0c3.5-0.5,6.5-1.9,9.1-4.4c0.4-0.4,0.5-0.9,0-1.3c-0.8-0.7-1.3-1.5-1.3-2.7c0-0.4-0.9-0.9-1.4-1.2
		c-0.6-0.3-1.3-0.3-2-0.4c-1.7-0.4-2.6-1.5-2.4-3.2c0.1-1.1,0.5-2.3,0.9-3.4c0.6-1.4,2.1-1.7,3.9-1.1c0.5,0.2,1.2,0.2,1.8,0
		C43.8,28,45.3,27.6,46.7,29.3z M23.3,35.7c0.1,0.1,0.2,0.1,0.3,0.2c1.2,0.7,1.8,1.7,1.6,3.1c-0.1,0.9,0.4,1.6,1.1,2.1
		c0.5,0.3,1,0.5,1.4,0.9c0.6,0.5,1.1,1,1.5,1.6c0.7,0.8,1.3,1.7,2,2.5c0.2-1.2,0.7-2.2,0.2-3.3c-0.4-0.8-0.2-1.7,0.8-2.2
		c0.4-0.2,0.6-0.5,1-0.7c0.6-0.4,0.7-0.9,0.1-1.4c-0.2-0.2-0.4-0.6-0.3-0.9c0.4-1.7,0.2-2-1.6-1.8c-0.7,0.1-1.5,0.1-2-0.2
		c-0.8-0.4-1.5-0.3-2.3-0.2c-1,0.2-2.1,0.3-3.2,0.4c-0.1-0.1-0.3-0.1-0.4-0.2c-0.1-0.1-0.3-0.2-0.4-0.3c-0.4-0.6-0.9-1.2-1.2-1.8
		c-0.1-0.3-0.2-0.8,0-1c0.1-0.2,0.6-0.2,0.9-0.2c0.3,0,0.7,0.2,0.9,0c0.9-0.8,1.9-0.3,2.8-0.2c1.4,0.1,2.3-0.6,2.5-2
		c0-0.3,0.1-0.7,0.3-1c0.7-1.3,1.5-2.5,2.2-3.8c-0.8-0.5-1.6-0.7-2.3,0.1c-0.6,0.6-1.2,0.8-2,0.2c-0.1-0.1-0.4-0.1-0.5-0.1
		c-1.9,0.8-3.1-0.4-4.5-1.4c-0.2-0.2-0.3-0.9-0.2-1.2c0.5-1.3,1.1-2.4,2.6-2.9c0.4-0.1,0.7-0.7,1.2-1.1c-0.4-0.1-0.4-0.1-0.5-0.1
		C20.6,20.6,17.8,24,17,29c-0.1,0.9,0.1,1.2,0.9,1.5c1,0.3,1.8,1,2.3,2c0.6,1.3,1.6,2.3,2.8,3C23.1,35.5,23.2,35.6,23.3,35.7z
		 M46.9,30.2c-0.4-0.2-0.9-0.2-1.1-0.4c-0.9-1.2-2-0.9-3.2-0.5c-0.9,0.3-1.6,0.4-2.6,0.1c-1.5-0.5-2.9-0.4-3.1,1.9
		c0,0.5-0.2,0.9-0.3,1.3c-0.4,1.8,0.1,2.5,1.9,2.9c0.9,0.2,1.9,0.4,2.7,0.8c0.7,0.3,1.2,0.8,1.1,1.5c-0.1,1.2,0.6,1.9,1.5,2.6
		C46.3,37.3,47.6,34,46.9,30.2z M17,31.1c-0.3,8.4,8.1,15,13.1,14.8c-0.5-0.5-1-0.9-1.3-1.5c-0.5-0.9-1.2-1.6-2.2-2.1
		c-1.4-0.7-2.3-1.9-2.2-3.5c0-0.9-0.3-1.5-1-2c-0.4-0.3-0.8-0.5-1.1-0.8c-1-1-2.1-1.9-2.8-3C18.8,31.9,18.1,31.4,17,31.1z
		 M44.9,23.8c-0.5-0.7-0.9-1.3-1.3-1.9c-0.4-0.7-0.9-0.9-1.6-0.5c-0.6,0.3-1.1,0.3-1.5-0.4c-0.1-0.1-0.6-0.1-0.8,0
		c-0.6,0.5-1.1,1.2-1.7,1.7c1,0.9,1.1,1.8,0,2.4c0,0.1,0,0.2,0,0.3c0,1,0.8,0.9,1.4,0.8c0.7-0.1,0.3-0.7,0.2-1.1
		c-0.1-0.5,0-0.7,0.5-0.9c1.2-0.4,1.4-0.3,2.2,1.2C41.9,23,43.6,23.9,44.9,23.8z M41.4,19.9c-0.1,0.1-0.1,0.2-0.2,0.3
		c0.2,0.1,0.4,0.3,0.7,0.4c0.1-0.1,0.1-0.2,0.2-0.2C41.8,20.2,41.6,20.1,41.4,19.9z"/>
	<path class="st0" d="M7.9,25.1C8,24.9,8,24.9,8,24.8c0.2-0.6,0.4-1.4,1.1-1.2c0.5,0.1,1.2,0.7,1.4,1.3c0.4,0.9,0.5,1.9,0.6,2.9
		c0.1,0.9,0,1.8,0,3c0.3-0.2,0.4-0.3,0.5-0.4c0.9-0.7,1.6-0.5,1.9,0.6c0.1,0.5,0.2,1.1,0.1,1.6c-0.3,1.8-0.7,3.6-1,5.5
		c0,0.3-0.2,0.5-0.2,0.6c1.8,1.7,3.5,3.3,5.2,5c4.3,4.1,6.5,9.3,7.8,14.9c0.3,1.4,0.1,2.9,0.1,4.4c0,0.2-0.3,0.5-0.4,0.7
		c-0.1,0-0.2-0.1-0.3-0.1c-0.1-0.8-0.2-1.7-0.2-2.5c0.1-2.6-0.8-4.9-1.7-7.2c-2.3-5.8-6.2-10.3-11-14.1c-1.3-1-2.3-1.3-3.7-1
		c0.7,0.8,1.3,1.6,2,2.4c1.9,2.3,3.7,4.7,4.7,7.6c0.2,0.6,0.3,1.1-0.3,1.5c-0.2-0.2-0.3-0.4-0.4-0.6c-1.3-3.4-3.5-6.3-5.8-9.1
		c-0.3-0.4-0.6-0.7-0.9-1.1c-0.7-1-0.4-1.7,0.7-2.1c0.2-0.1,0.3-0.1,0.6-0.2c-0.3-1.7-0.5-3.4-0.8-5c-0.4-2.5-0.9-5-1.3-7.5
		c0-0.2,0-0.3-0.1-0.4c-0.4-0.4-0.7-0.8-1.1-1.2c-0.1,0.4-0.4,0.9-0.4,1.3c0.1,5,0.2,9.9,0.3,14.9c0.1,2.2,0.6,4.2,2.2,5.8
		c2.5,2.5,5,5.1,7.4,7.6c1.2,1.2,2.4,2.4,3.7,3.7c0.7,0.7,1,1.5,0.8,2.5c-0.3,1.2-0.4,2.5-0.6,3.7c-0.1,0.5-0.5,0.9-0.8,1.3
		c-0.1,0-0.2-0.1-0.3-0.1c0-0.3,0-0.6,0-0.9c0.2-1.1,0.4-2.2,0.6-3.4c0.2-1.1-0.1-2-0.9-2.7c-2.6-2.5-5.2-5-7.8-7.5
		c-0.6-0.5-1.1-1.1-1.6-1.6c-2.2-2.4-3.8-5-3.8-8.4c0.1-4.5-0.1-8.9-0.2-13.4c0-0.8-0.1-1.6,0-2.4c0.2-1.3,1.2-1.6,2.1-0.8
		c0.4,0.4,0.7,0.9,1,1.5C7.6,24.2,7.7,24.6,7.9,25.1z M9.4,24.3c-1.3,2-0.6,11,0.9,13.3c0.1-0.3,0.3-0.5,0.3-0.8
		c-0.1-3.7-0.3-7.5-0.5-11.2C10.1,25.2,9.7,24.8,9.4,24.3z M11.9,37.3c0,0,0.1,0,0.1,0c0.3-1.8,0.6-3.6,0.8-5.4c0-0.3-0.2-0.7-0.4-1
		c-0.3,0.3-0.8,0.6-0.8,1C11.7,33.7,11.8,35.5,11.9,37.3z"/>
	<path class="st0" d="M37.8,63.6c-0.1-0.3-0.3-0.6-0.4-0.8c-0.2-2.8,0.1-5.6,1.2-8.2c2.2-5.5,5.6-10.1,10.1-13.9
		c0.7-0.6,1.3-1.2,1.8-1.7c-0.2-0.7-0.3-1.3-0.4-1.8c-0.3-1.3-0.5-2.7-0.7-4c-0.1-0.5-0.2-1-0.1-1.5c0.1-0.6,0.4-1.3,0.8-1.6
		c0.3-0.2,1,0.2,1.7,0.3c0-0.7-0.1-1.6,0-2.4c0.1-1,0.2-2,0.5-2.9c0.2-0.7,0.6-1.6,1.4-1.5c0.5,0.1,1,0.8,1.5,1.3
		c0.1-0.2,0.2-0.6,0.3-0.9c0.2-0.4,0.3-0.9,0.6-1.1c0.5-0.4,1.2-0.8,1.8-0.7c0.8,0.1,0.9,0.9,0.9,1.6c-0.1,5.9-0.2,11.8-0.5,17.7
		c0,1-0.5,2-1,2.8c-1.2,1.7-2.5,3.3-3.9,4.8c-2.6,2.6-5.2,5.2-7.9,7.7c-0.9,0.8-1.2,1.8-1,2.9c0.2,1.1,0.4,2.1,0.6,3.2
		c0.1,0.3,0.1,0.6,0.1,0.9c-0.1,0.1-0.2,0.1-0.3,0.2c-0.3-0.4-0.7-0.8-0.8-1.2c-0.3-1.5-0.6-3-0.7-4.5c0-0.6,0.5-1.4,0.9-1.9
		c1.8-1.8,3.7-3.6,5.5-5.4c1.9-1.9,3.7-3.9,5.6-5.8c1.5-1.6,2.1-3.6,2.2-5.7c0.1-5,0.2-10.1,0.3-15.1c0-0.2,0-0.4,0-0.6
		c-0.1-0.6-0.5-0.8-0.9-0.3c-0.3,0.4-0.6,0.9-0.7,1.4c-0.7,3.6-1.3,7.3-1.9,10.9c-0.1,0.5-0.2,1.1-0.3,1.6c0.3,0.1,0.6,0.2,0.9,0.3
		c0.8,0.4,1.1,1,0.6,1.8c-0.3,0.5-0.7,0.9-1.1,1.4c-2.3,2.8-4.5,5.6-5.7,9c-0.1,0.2-0.2,0.4-0.4,0.6c-0.7-0.3-0.6-0.8-0.4-1.4
		c1-2.8,2.8-5.2,4.6-7.5c0.7-0.8,1.3-1.6,2-2.4c0-0.1-0.1-0.2-0.1-0.3c-0.5,0-1.1,0-1.6,0.1c-0.7,0.2-1.4,0.6-1.9,1
		c-2,1.8-4.1,3.6-6,5.7c-3.2,3.5-5.1,7.9-6.5,12.3c-0.5,1.6-0.3,3.4-0.5,5.1c0,0.2,0,0.4-0.1,0.6C38,63.5,37.9,63.6,37.8,63.6z
		 M52.6,37.5c0.1,0,0.2,0,0.2,0c1-3.1,2.3-11.2,0.9-13c-0.8,0.3-0.9,1-0.9,1.6c-0.2,3.5-0.3,6.9-0.4,10.4
		C52.4,36.9,52.6,37.2,52.6,37.5z M51,37c0.1,0,0.1,0,0.2,0c0.1-1.7,0.2-3.4,0.2-5.1c0-0.1,0-0.3-0.1-0.4c-0.2-0.2-0.5-0.3-0.7-0.5
		c-0.1,0.2-0.4,0.5-0.4,0.7C50.4,33.5,50.7,35.2,51,37z"/>
	<path class="st1" d="M32.1,17.9c0.1-0.5,0.2-1,0.4-1.5c1-3.8,3.4-6,7.2-6.4c1-0.1,1.2,0,1,1c-0.2,1.1-0.4,2.3-0.8,3.3
		c-0.9,2.5-2.8,3.8-5.4,4.1c-0.3,0-0.7,0.1-1,0.1c-0.9,0.1-1.2,0.6-1.3,1.4c0,0.7,0,1.3,0,2.1c-0.3,0-0.6,0.1-1,0.1
		C31.2,21,31,19.7,31,18.5c0-1.2-0.6-2.1-1.6-2.7c-1-0.5-2-1.1-3-1.7c-3.7-2.4-5-6.3-3.4-10.5c0.4-0.9,0.8-1.8,1.3-2.6
		c0.2-0.3,0.7-0.6,1-0.5C31,0.9,34.8,7,32.7,12.3C31.6,15.2,31.6,15.2,32.1,17.9z M34,15.6c1.5-1.4,2.9-2.8,4.4-4.2
		c-2.2,0.6-3.8,1.9-4.6,4.1c-0.1,0.1-0.1,0.2-0.2,0.2C33.7,15.7,33.9,15.6,34,15.6z M30.5,15.2c-1.2-4.8-2.5-9.4-5.6-13.4
		c-0.3,0.6-0.5,1-0.8,1.5c-1.8,3.9-0.7,7.8,3,10C28.2,14,29.3,14.6,30.5,15.2z M31.1,13.5c2.5-5.1-0.3-11.5-5.1-11.7
		C28.8,5.2,29.9,9.3,31.1,13.5z M39.7,11.4c-2.2,2.1-4.2,4.1-6.2,6C37.3,17.4,39.3,15.4,39.7,11.4z"/>
	<path class="st0" d="M23,35.5c-1.2-0.7-2.2-1.7-2.8-3c-0.5-1-1.3-1.7-2.3-2c-0.8-0.3-1-0.6-0.9-1.5c0.8-5,3.6-8.3,8.2-10.2
		c0,0,0.1,0,0.5,0.1c-0.5,0.4-0.8,1-1.2,1.1c-1.4,0.5-2.1,1.6-2.6,2.9c-0.1,0.3,0,1,0.2,1.2c1.3,1,2.6,2.2,4.5,1.4
		c0.1-0.1,0.4,0,0.5,0.1c0.7,0.6,1.4,0.4,2-0.2c0.8-0.8,1.5-0.7,2.3-0.1c-0.7,1.3-1.5,2.5-2.2,3.8c-0.2,0.3-0.2,0.6-0.3,1
		c-0.2,1.4-1.1,2.1-2.5,2c-0.9-0.1-1.9-0.6-2.8,0.2c-0.2,0.1-0.6-0.1-0.9,0c-0.3,0-0.8,0-0.9,0.2c-0.1,0.3-0.1,0.7,0,1
		c0.3,0.6,0.8,1.2,1.2,1.8C23,35.3,23,35.4,23,35.5z"/>
	<path class="st0" d="M46.9,30.2c0.7,3.8-0.6,7.1-2.9,10.2c-0.9-0.8-1.6-1.4-1.5-2.6c0.1-0.8-0.5-1.3-1.1-1.5
		c-0.9-0.3-1.8-0.6-2.7-0.8c-1.9-0.4-2.3-1.1-1.9-2.9c0.1-0.4,0.2-0.9,0.3-1.3c0.2-2.3,1.6-2.4,3.1-1.9c0.9,0.3,1.7,0.2,2.6-0.1
		c1.1-0.4,2.3-0.7,3.2,0.5C46,30,46.5,30.1,46.9,30.2z"/>
	<path class="st2" d="M17,31.1c1.1,0.3,1.8,0.8,2.4,1.8c0.7,1.1,1.8,2,2.8,3c0.3,0.3,0.7,0.6,1.1,0.8c0.7,0.5,1,1.1,1,2
		c-0.1,1.7,0.8,2.8,2.2,3.5c0.9,0.5,1.6,1.1,2.2,2.1c0.3,0.6,0.9,1,1.3,1.5C25,46.1,16.7,39.5,17,31.1z"/>
	<path class="st0" d="M23.8,35.7c1.1-0.1,2.1-0.2,3.2-0.4c0.8-0.1,1.5-0.2,2.3,0.2c0.6,0.3,1.4,0.3,2,0.2c1.7-0.1,2,0.2,1.6,1.8
		c-0.1,0.2,0.1,0.7,0.3,0.9c0.6,0.6,0.4,1-0.1,1.4c-0.3,0.2-0.6,0.5-1,0.7c-1,0.5-1.2,1.4-0.8,2.2c0.6,1.1,0,2.1-0.2,3.3
		c-0.7-0.8-1.3-1.7-2-2.5c-0.5-0.6-1-1.1-1.5-1.6c-0.4-0.4-1-0.6-1.4-0.9c-0.7-0.5-1.2-1.2-1.1-2.1c0.2-1.5-0.4-2.4-1.6-3.1
		C23.7,35.8,23.8,35.7,23.8,35.7z"/>
	<path class="st0" d="M44.9,23.8c-1.3,0.1-3-0.7-2.5,1.7c-0.8-1.6-1-1.7-2.2-1.2c-0.5,0.2-0.6,0.4-0.5,0.9c0.1,0.4,0.5,1-0.2,1.1
		c-0.5,0.1-1.4,0.2-1.4-0.8c0-0.1,0-0.2,0-0.3c1.1-0.6,1-1.5,0-2.4c0.6-0.6,1.1-1.2,1.7-1.7c0.2-0.1,0.7-0.1,0.8,0
		c0.4,0.7,0.9,0.7,1.5,0.4c0.7-0.3,1.2-0.2,1.6,0.5C43.9,22.5,44.4,23,44.9,23.8z"/>
	<path class="st0" d="M41.4,19.9c0.2,0.1,0.4,0.3,0.6,0.4c-0.1,0.1-0.1,0.2-0.2,0.2c-0.2-0.1-0.4-0.3-0.7-0.4
		C41.2,20.1,41.3,20,41.4,19.9z"/>
	<path class="st0" d="M23,35.5c0-0.1,0-0.2,0-0.3c0.1,0.1,0.3,0.2,0.4,0.3c0,0.1-0.1,0.1-0.1,0.2C23.2,35.6,23.1,35.5,23,35.5z"/>
	<path class="st0" d="M23.4,35.5c0.1,0.1,0.3,0.1,0.4,0.2c-0.1,0.1-0.1,0.1-0.2,0.2c-0.1-0.1-0.2-0.1-0.3-0.2
		C23.3,35.6,23.4,35.6,23.4,35.5z"/>
	<path class="st0" d="M9.4,24.3c0.3,0.5,0.7,0.9,0.7,1.4c0.2,3.7,0.3,7.4,0.5,11.2c0,0.2-0.2,0.5-0.3,0.8
		C8.8,35.3,8.1,26.3,9.4,24.3z"/>
	<path class="st0" d="M11.9,37.3c-0.1-1.8-0.2-3.6-0.2-5.4c0-0.3,0.5-0.6,0.8-1c0.1,0.3,0.4,0.7,0.4,1c-0.2,1.8-0.5,3.6-0.8,5.4
		C12,37.3,11.9,37.3,11.9,37.3z"/>
	<path class="st0" d="M52.6,37.5c-0.1-0.3-0.2-0.7-0.2-1c0.1-3.5,0.3-7,0.4-10.4c0-0.7,0.1-1.4,0.9-1.6c1.5,1.8,0.1,9.9-0.9,13
		C52.8,37.5,52.7,37.5,52.6,37.5z"/>
	<path class="st0" d="M51,37c-0.3-1.8-0.5-3.6-0.8-5.3c0-0.2,0.2-0.5,0.4-0.7c0.2,0.2,0.5,0.3,0.7,0.5c0.1,0.1,0.1,0.3,0.1,0.4
		c-0.1,1.7-0.1,3.4-0.2,5.1C51.1,37,51,37,51,37z"/>
	<path class="st1" d="M30.5,15.2c-1.2-0.7-2.3-1.2-3.3-1.9c-3.7-2.3-4.8-6.1-3-10c0.2-0.5,0.5-0.9,0.8-1.5
		C28,5.9,29.3,10.5,30.5,15.2z"/>
	<path class="st1" d="M31.1,13.5c-1.2-4.2-2.4-8.2-5.1-11.7C30.8,1.9,33.6,8.4,31.1,13.5z"/>
	<path class="st1" d="M39.7,11.4c-0.4,4-2.4,6-6.2,6C35.5,15.5,37.5,13.5,39.7,11.4z"/>
	<path class="st1" d="M33.8,15.5c0.8-2.1,2.3-3.5,4.6-4.1c-1.5,1.4-2.9,2.8-4.4,4.2C33.9,15.6,33.9,15.5,33.8,15.5z"/>
	<path class="st1" d="M34,15.6c-0.1,0-0.2,0.1-0.3,0.1c0.1-0.1,0.1-0.2,0.2-0.2C33.9,15.5,33.9,15.6,34,15.6z"/>
</g>
</svg>
